<svg width="1055" height="717" viewBox="0 0 1055 717" fill="none" xmlns="http://www.w3.org/2000/svg">
<g clip-path="url(#clip0_44_3)">
<path d="M940.8 224.7C941.1 224.4 941.5 224.3 941.9 224.4C942.6 224.5 943 225.2 942.9 225.8C941 236.7 944.5 246.4 952.2 251.7C958.8 256.3 967.2 256.5 974.1 252.4C981.3 248.1 985 240.1 983.6 232C982.4 224.8 977.3 219.4 970.4 218.1C964 216.8 958.7 219.2 956.4 224.5C954 230 955.5 236.7 960 240C963 242.3 966.1 240.8 968 238.7C969.9 236.6 970.9 233.3 969.3 231.6C968.8 231.1 968.9 230.3 969.4 229.9C969.9 229.4 970.7 229.5 971.1 230C973.8 232.8 972.4 237.4 969.8 240.4C967.3 243.2 962.8 245.3 958.5 242.1C953.1 238.1 951.2 230.1 954.1 223.6C956.9 217.2 963.2 214.3 970.8 215.8C978.7 217.4 984.5 223.5 985.9 231.7C987.5 240.8 983.3 249.8 975.3 254.6C967.6 259.2 958.2 258.9 950.7 253.8C942.2 247.9 938.3 237.3 940.4 225.5C940.5 225.1 940.6 224.8 940.8 224.7Z" fill="#FACAB4"/>
<path d="M840.9 683.2C841.2 682.9 841.6 682.8 842 682.9C842.7 683 843.1 683.7 843 684.3C841.1 695.2 844.6 704.9 852.3 710.2C858.9 714.8 867.3 715 874.2 710.9C881.4 706.6 885.1 698.6 883.7 690.5C882.5 683.3 877.4 677.9 870.5 676.6C864.1 675.3 858.8 677.7 856.5 683C854.1 688.5 855.6 695.2 860.1 698.5C863.1 700.8 866.2 699.3 868.1 697.2C870 695.1 871 691.8 869.4 690.1C868.9 689.6 869 688.8 869.5 688.4C870 687.9 870.8 688 871.2 688.5C873.9 691.3 872.5 695.9 869.9 698.9C867.4 701.7 862.9 703.8 858.6 700.6C853.2 696.6 851.3 688.6 854.2 682.1C857 675.7 863.3 672.8 870.9 674.3C878.8 675.9 884.6 682 886 690.2C887.6 699.3 883.4 708.3 875.4 713.1C867.7 717.7 858.3 717.4 850.8 712.3C842.3 706.4 838.4 695.8 840.5 684C840.5 683.6 840.7 683.3 840.9 683.2Z" fill="#71408A"/>
<path d="M145.5 245.3C145.8 245 146.2 244.9 146.6 245C147.3 245.1 147.7 245.8 147.6 246.4C145.7 257.3 149.2 267 156.9 272.3C163.5 276.9 171.9 277.1 178.8 273C186 268.7 189.7 260.7 188.3 252.6C187.1 245.4 182 240 175.1 238.7C168.7 237.4 163.4 239.8 161.1 245.1C158.7 250.6 160.2 257.3 164.7 260.6C167.7 262.9 170.8 261.4 172.7 259.3C174.6 257.2 175.6 253.9 174 252.2C173.5 251.7 173.6 250.9 174.1 250.5C174.6 250 175.4 250.1 175.8 250.6C178.5 253.4 177.1 258 174.5 261C172 263.8 167.5 265.9 163.2 262.7C157.8 258.7 155.9 250.7 158.8 244.2C161.6 237.8 167.9 234.9 175.5 236.4C183.4 238 189.2 244.1 190.6 252.3C192.2 261.4 188 270.4 180 275.2C172.3 279.8 162.9 279.5 155.4 274.4C146.9 268.5 143 257.9 145.1 246.1C145.2 245.7 145.4 245.4 145.5 245.3Z" fill="#FACAB4"/>
<path d="M1049.2 614.7C1048.6 614.7 1048.2 614.3 1048.2 613.7V600.6C1048.2 593.9 1042.8 588.5 1036.1 588.5C1028.3 588.5 1022 582.2 1022 574.4C1022 567.7 1016.6 562.3 1009.9 562.3C1002.1 562.3 995.8 556 995.8 548.2C995.8 541.5 990.4 536.1 983.7 536.1C975.9 536.1 969.6 529.8 969.6 522C969.6 515.3 964.2 509.9 957.5 509.9H944.4C943.8 509.9 943.4 509.5 943.4 508.9C943.4 508.3 943.8 507.9 944.4 507.9H957.5C965.3 507.9 971.6 514.2 971.6 522C971.6 528.7 977 534.1 983.7 534.1C991.5 534.1 997.8 540.4 997.8 548.2C997.8 554.9 1003.2 560.3 1009.9 560.3C1017.7 560.3 1024 566.6 1024 574.4C1024 581.1 1029.4 586.5 1036.1 586.5C1043.9 586.5 1050.2 592.8 1050.2 600.6V613.7C1050.2 614.2 1049.8 614.7 1049.2 614.7Z" fill="#93CEBE"/>
<path d="M1040.1 629C1039.5 629 1039.1 628.6 1039.1 628V614.9C1039.1 608.2 1033.7 602.8 1027 602.8C1019.2 602.8 1012.9 596.5 1012.9 588.7C1012.9 582 1007.5 576.6 1000.8 576.6C993 576.6 986.7 570.3 986.7 562.5C986.7 555.8 981.3 550.4 974.6 550.4C966.8 550.4 960.5 544.1 960.5 536.3C960.5 529.6 955.1 524.2 948.4 524.2H935.3C934.7 524.2 934.3 523.8 934.3 523.2C934.3 522.6 934.7 522.2 935.3 522.2H948.4C956.2 522.2 962.5 528.5 962.5 536.3C962.5 543 967.9 548.4 974.6 548.4C982.4 548.4 988.7 554.7 988.7 562.5C988.7 569.2 994.1 574.6 1000.8 574.6C1008.6 574.6 1014.9 580.9 1014.9 588.7C1014.9 595.4 1020.3 600.8 1027 600.8C1034.8 600.8 1041.1 607.1 1041.1 614.9V628C1041.1 628.5 1040.6 629 1040.1 629Z" fill="#93CEBE"/>
<path d="M675.2 604.9C675 605.4 674.5 605.6 674.1 605.4L663.4 601.6C657.9 599.6 651.9 602.5 649.9 608C647.6 614.4 640.6 617.7 634.2 615.4C628.7 613.4 622.7 616.3 620.7 621.8C618.4 628.2 611.4 631.5 605 629.2C599.5 627.2 593.5 630.1 591.5 635.6C589.2 642 582.2 645.3 575.8 643C570.3 641 564.3 643.9 562.3 649.4L558.5 660.1C558.3 660.6 557.8 660.8 557.4 660.6C556.9 660.4 556.7 659.9 556.9 659.5L560.7 648.8C563 642.4 570 639.1 576.4 641.4C581.9 643.4 587.9 640.5 589.9 635C592.2 628.6 599.2 625.3 605.6 627.6C611.1 629.6 617.1 626.7 619.1 621.2C621.4 614.8 628.4 611.5 634.8 613.8C640.3 615.8 646.3 612.9 648.3 607.4C650.6 601 657.6 597.7 664 600L674.7 603.8C675.1 603.9 675.3 604.4 675.2 604.9Z" fill="#5FB130"/>
<path d="M684.3 616.5C684.1 617 683.6 617.2 683.2 617L672.5 613.2C667 611.2 661 614.1 659 619.6C656.7 626 649.7 629.3 643.3 627C637.8 625 631.8 627.9 629.8 633.4C627.5 639.8 620.5 643.1 614.1 640.8C608.6 638.8 602.6 641.7 600.6 647.2C598.3 653.6 591.3 656.9 584.9 654.6C579.4 652.6 573.4 655.5 571.4 661L567.6 671.7C567.4 672.2 566.9 672.4 566.5 672.2C566 672 565.8 671.5 566 671.1L569.8 660.4C572.1 654 579.1 650.7 585.5 653C591 655 597 652.1 599 646.6C601.3 640.2 608.3 636.9 614.7 639.2C620.2 641.2 626.2 638.3 628.2 632.8C630.5 626.4 637.5 623.1 643.9 625.4C649.4 627.4 655.4 624.5 657.4 619C659.7 612.6 666.7 609.3 673.1 611.6L683.8 615.4C684.2 615.6 684.4 616.1 684.3 616.5Z" fill="#5FB130"/>
<path d="M336.7 64.6C336.4 64.6 336.1 64.3 336.1 64L335.8 55.8C335.6 51.6 332.1 48.4 328 48.5C323.1 48.7 319 44.9 318.9 40C318.7 35.8 315.2 32.6 311.1 32.7C306.2 32.9 302.1 29.1 302 24.2C301.8 20 298.3 16.8 294.2 16.9C289.3 17.1 285.2 13.3 285.1 8.4C284.9 4.2 281.4 1 277.3 1.1L269.1 1.4C268.8 1.4 268.5 1.1 268.5 0.8C268.5 0.5 268.8 0.2 269.1 0.2L277.3 -0.0999999C282.2 -0.3 286.3 3.5 286.4 8.4C286.6 12.6 290.1 15.8 294.2 15.7C299.1 15.5 303.2 19.3 303.3 24.2C303.5 28.4 307 31.6 311.1 31.5C316 31.3 320.1 35.1 320.2 40C320.4 44.2 323.9 47.4 328 47.3C332.9 47.1 337 50.9 337.1 55.8L337.4 64C337.3 64.3 337 64.6 336.7 64.6Z" fill="#FBBD2E"/>
<path d="M331.3 73.8C331 73.8 330.7 73.5 330.7 73.2L330.4 65C330.2 60.8 326.7 57.6 322.6 57.7C317.7 57.9 313.6 54.1 313.5 49.2C313.3 45 309.8 41.8 305.7 41.9C300.8 42.1 296.7 38.3 296.6 33.4C296.4 29.2 292.9 26 288.8 26.1C283.9 26.3 279.8 22.5 279.7 17.6C279.5 13.4 276 10.2 271.9 10.3L263.7 10.6C263.4 10.6 263.1 10.3 263.1 10C263.1 9.7 263.4 9.4 263.7 9.4L271.9 9.1C276.8 8.9 280.9 12.7 281 17.6C281.2 21.8 284.7 25 288.8 24.9C293.7 24.7 297.8 28.5 297.9 33.4C298.1 37.6 301.6 40.8 305.7 40.7C310.6 40.5 314.7 44.3 314.8 49.2C315 53.4 318.5 56.6 322.6 56.5C327.5 56.3 331.6 60.1 331.7 65L332 73.2C331.9 73.5 331.6 73.7 331.3 73.8Z" fill="#FBBD2E"/>
<path d="M160.8 127.2C160.4 127.2 160 127.1 159.6 127C157.6 126.5 156.3 124.7 156.5 122.6C157.8 105.7 160.8 84.4 167.9 79C169.5 77.8 171.2 77.3 173 77.7C174.8 78 176.2 79.1 177 80.7C180.8 88.1 172.3 108.8 164.5 124.8C163.8 126.4 162.4 127.2 160.8 127.2ZM171.9 80.3C171.1 80.3 170.3 80.6 169.5 81.2C164.6 85 160.9 99.8 159.1 122.9C159 123.9 159.7 124.4 160.3 124.6C160.9 124.8 161.7 124.6 162.2 123.8C172.7 102.2 177.2 87 174.7 82C174.2 81.1 173.6 80.6 172.6 80.4C172.4 80.3 172.1 80.3 171.9 80.3Z" fill="#D1E4BE"/>
<path d="M151 100.5C151.7 103.5 147.8 105.4 145.9 103C137.1 91.7 123.7 72.3 128.2 63.3C135.4 48.9 146.5 81.7 151 100.5Z" fill="#D1E4BE"/>
<path d="M156.5 81.2C156.3 81.2 156.1 81.2 155.9 81.2C153.8 80.9 152.3 79.3 152.3 77.2C151.5 54.2 153.4 40.3 158.1 35.9C159.4 34.7 160.8 34.2 162.5 34.4C164.1 34.6 165.4 35.4 166.4 36.8C169.8 42 167.8 56 160.6 78.4C159.9 80.1 158.3 81.2 156.5 81.2ZM161.8 36.9C161.1 36.9 160.4 37.2 159.8 37.8C155.9 41.5 154.1 55.5 154.8 77.1C154.8 78.1 155.5 78.5 156.2 78.6C156.8 78.7 157.6 78.4 157.9 77.5C164.6 56.8 166.8 42.4 164 38.1C163.5 37.4 162.9 37 162.1 36.9C162 36.9 161.9 36.9 161.8 36.9Z" fill="#D1E4BE"/>
<path d="M189.5 512C189.2 512.3 188.9 512.5 188.5 512.7C186.6 513.6 184.5 513.1 183.3 511.5C173 498 161.2 480 162.9 471.3C163.3 469.3 164.3 467.9 165.8 466.9C167.4 466 169.1 465.8 170.8 466.5C178.5 469.6 185.9 490.7 190.7 507.8C191.1 509.4 190.6 511 189.5 512ZM166.6 469.5C166 470 165.6 470.8 165.4 471.7C164.2 477.8 171.3 491.3 185.3 509.8C185.9 510.6 186.7 510.6 187.3 510.3C187.9 510 188.4 509.4 188.1 508.4C181.6 485.3 175 470.9 169.8 468.8C168.9 468.4 168 468.5 167.1 469C167 469.2 166.8 469.4 166.6 469.5Z" fill="#82368C"/>
<path d="M164.4 498.5C167 500.3 165.3 504.3 162.2 503.7C148.1 501.1 125.2 495.4 122.7 485.7C118.5 470.2 148.6 487.4 164.4 498.5Z" fill="#82368C"/>
<path d="M155.7 480.5C155.5 480.6 155.4 480.8 155.2 480.9C153.5 482.1 151.2 481.8 149.8 480.3C133.9 463.6 126.2 451.9 126.8 445.5C127 443.8 127.7 442.4 129 441.5C130.3 440.6 131.9 440.3 133.5 440.7C139.4 442.3 147.3 454.1 156.8 475.7C157.5 477.3 157 479.3 155.7 480.5ZM130.3 443.7C129.7 444.2 129.5 444.8 129.4 445.7C128.9 451.1 136.8 462.7 151.7 478.4C152.4 479.1 153.2 479 153.8 478.6C154.3 478.2 154.8 477.5 154.4 476.6C145.6 456.7 137.8 444.4 132.9 443.1C132 442.9 131.3 443 130.7 443.5C130.5 443.6 130.4 443.7 130.3 443.7Z" fill="#82368C"/>
<path d="M869.1 436.6C868.8 436.4 868.4 436.2 868.1 435.9C866.5 434.5 866.2 432.4 867.3 430.6C875.9 416 888 398.3 896.8 396.5C898.7 396.1 900.5 396.5 902 397.6C903.5 398.7 904.3 400.2 904.3 402C904.4 410.3 887.7 425.1 873.6 436.1C872.2 437.2 870.5 437.3 869.1 436.6ZM899.8 399.4C899.1 399 898.2 399 897.3 399.1C891.2 400.3 881.4 412 869.6 432C869.1 432.8 869.4 433.6 869.9 434C870.4 434.4 871.2 434.7 871.9 434.1C890.8 419.4 901.7 407.7 901.6 402.1C901.6 401.1 901.2 400.3 900.4 399.7C900.2 399.6 900 399.5 899.8 399.4Z" fill="#FBBD2E"/>
<path d="M872.1 408.3C871.4 411.4 867 411.3 866.4 408.3C863.5 394.3 860.1 370.9 868.1 364.9C880.9 355.1 876.4 389.5 872.1 408.3Z" fill="#FBBD2E"/>
<path d="M885.5 393.4C885.3 393.3 885.1 393.2 885 393.1C883.3 391.9 882.7 389.8 883.5 387.9C893 366.9 900.8 355.3 906.9 353.4C908.6 352.9 910.1 353.1 911.5 353.9C912.9 354.8 913.7 356.1 913.9 357.7C914.7 363.8 906.7 375.5 890.4 392.5C889.1 393.9 887.1 394.2 885.5 393.4ZM909.9 356C909.2 355.7 908.5 355.6 907.7 355.9C902.5 357.5 894.8 369.2 885.9 389C885.5 389.9 885.9 390.6 886.5 391C887 391.4 887.9 391.5 888.6 390.8C903.7 375.1 912.1 363.2 911.4 358.2C911.3 357.3 910.9 356.7 910.2 356.3C910.1 356.1 910 356.1 909.9 356Z" fill="#FBBD2E"/>
<path d="M585.2 46C585.4 46.2 585.6 46.6 585.5 47C585.4 47.6 584.8 48 584.2 48C574.1 46.6 565.4 50 560.7 57.2C556.7 63.4 556.7 71.1 560.6 77.3C564.7 83.7 572.1 86.9 579.5 85.4C586.1 84.1 590.8 79.3 591.9 72.9C592.9 67 590.6 62.2 585.7 60.2C580.6 58.1 574.5 59.7 571.6 63.9C569.6 66.7 571.1 69.5 573.1 71.2C575.1 72.9 578.1 73.7 579.6 72.2C580 71.8 580.8 71.8 581.2 72.2C581.6 72.6 581.6 73.4 581.2 73.8C578.7 76.3 574.4 75.2 571.7 72.9C569.1 70.7 567 66.7 569.8 62.6C573.3 57.6 580.5 55.6 586.6 58.1C592.5 60.5 595.4 66.2 594.2 73.2C593 80.5 587.6 86 580 87.5C571.7 89.2 563.3 85.6 558.7 78.4C554.3 71.4 554.3 62.8 558.8 55.9C563.9 47.9 573.5 44.1 584.5 45.7C584.8 45.7 585 45.8 585.2 46Z" fill="#93CEBE"/>
<path d="M572.4 110.9C572.4 115.1 569 118.5 564.8 118.5C560.6 118.5 557.2 115.1 557.2 110.9C557.2 106.7 560.6 103.3 564.8 103.3C569 103.3 572.4 106.7 572.4 110.9Z" fill="#FACAB4"/>
<path d="M57.4 207.6C57.4 211.8 54 215.2 49.8 215.2C45.6 215.2 42.2 211.8 42.2 207.6C42.2 203.4 45.6 200 49.8 200C54 200 57.4 203.4 57.4 207.6Z" fill="#E94259"/>
<path d="M15.3 45.3C15.3 49.5 11.9 52.9 7.7 52.9C3.4 53 0 49.5 0 45.3C0 41.1 3.4 37.7 7.6 37.7C11.8 37.7 15.3 41.1 15.3 45.3Z" fill="#5FB130"/>
<path d="M249.1 633.7C249.1 637.9 245.7 641.3 241.5 641.3C237.3 641.3 233.9 637.9 233.9 633.7C233.9 629.5 237.3 626.1 241.5 626.1C245.7 626 249.1 629.4 249.1 633.7Z" fill="#5FB130"/>
<path d="M49.8 633.7C49.8 637.9 46.4 641.3 42.2 641.3C38 641.3 34.6 637.9 34.6 633.7C34.6 629.5 38 626.1 42.2 626.1C46.4 626 49.8 629.4 49.8 633.7Z" fill="#FBBD2E"/>
<path d="M863.1 572.8C863.1 577 859.7 580.4 855.5 580.4C851.3 580.4 847.9 577 847.9 572.8C847.9 568.6 851.3 565.2 855.5 565.2C859.7 565.2 863.1 568.6 863.1 572.8Z" fill="#FACAB4"/>
<path d="M827.3 81.9C827.3 86.1 823.9 89.5 819.7 89.5C815.5 89.5 812.1 86.1 812.1 81.9C812.1 77.7 815.5 74.3 819.7 74.3C823.9 74.3 827.3 77.7 827.3 81.9Z" fill="#009DDC"/>
<path d="M1055 393.9C1055 398.1 1051.6 401.5 1047.4 401.5C1043.2 401.5 1039.8 398.1 1039.8 393.9C1039.8 389.7 1043.2 386.3 1047.4 386.3C1051.6 386.2 1055 389.6 1055 393.9Z" fill="#009DDC"/>
<path d="M372.3 578.2C369.4 564.1 378.5 550.2 392.6 547.2C406.7 544.3 420.6 553.4 423.6 567.5C426.5 581.6 417.4 595.5 403.3 598.5C389.2 601.5 375.3 592.3 372.3 578.2ZM420.3 568.2C417.7 555.9 405.6 547.9 393.3 550.5C381 553.1 373 565.2 375.6 577.5C378.2 589.8 390.3 597.8 402.6 595.2C415 592.6 422.9 580.5 420.3 568.2Z" fill="#F39EA3"/>
<path d="M411.4 571.4C401.8 573.4 392.4 567.2 390.4 557.6C388.4 548 394.6 538.6 404.2 536.6C413.8 534.6 423.2 540.8 425.2 550.4C427.2 559.9 421 569.4 411.4 571.4Z" fill="#F39EA3"/>
<path d="M8.19999 427.3C5.29999 413.2 14.4 399.3 28.5 396.3C42.6 393.4 56.5 402.5 59.5 416.6C62.4 430.7 53.3 444.6 39.2 447.6C25 450.6 11.1 441.5 8.19999 427.3ZM56.2 417.3C53.6 405 41.5 397 29.2 399.6C16.9 402.2 8.89999 414.3 11.5 426.6C14.1 438.9 26.2 446.9 38.5 444.3C50.8 441.8 58.8 429.7 56.2 417.3Z" fill="#E94259"/>
<path d="M47.3 420.5C37.7 422.5 28.3 416.3 26.3 406.7C24.3 397.1 30.5 387.7 40.1 385.7C49.7 383.7 59.1 389.9 61.1 399.5C63.1 409.1 56.9 418.5 47.3 420.5Z" fill="#E94259"/>
<path d="M986.3 109C970.7 109 958.1 96.3 958.1 80.8C958.1 65.2 970.8 52.6 986.3 52.6C1001.9 52.6 1014.5 65.3 1014.5 80.8C1014.5 96.3 1001.8 109 986.3 109ZM986.3 56.1C972.7 56.1 961.7 67.1 961.7 80.7C961.7 94.3 972.7 105.3 986.3 105.3C999.9 105.3 1010.9 94.3 1010.9 80.7C1010.9 67.2 999.9 56.1 986.3 56.1Z" fill="#D1E4BE"/>
<path d="M1030.2 37C1039.7 37 1047.4 44.7 1047.4 54.2C1047.4 63.7 1039.7 71.4 1030.2 71.4C1020.7 71.4 1013 63.7 1013 54.2C1013 44.7 1020.7 37 1030.2 37Z" fill="#93CEBE"/>
<path d="M971.8 79.4C982.4 79.4 991 88 991 98.6C991 109.2 982.4 117.8 971.8 117.8C961.2 117.8 952.6 109.2 952.6 98.6C952.6 87.9 961.2 79.4 971.8 79.4Z" fill="#D1E4BE"/>
</g>
<defs>
<clipPath id="clip0_44_3">
<rect width="1055" height="716.2" fill="white"/>
</clipPath>
</defs>
</svg>
