<svg width="524" height="253" viewBox="0 0 524 253" fill="none" xmlns="http://www.w3.org/2000/svg">
<path d="M19.0595 183.017C16.6595 177.617 15.2595 171.517 14.9595 164.517C14.6595 157.517 14.6595 150.617 15.2595 143.917C15.7595 137.117 16.3595 130.717 17.0595 124.817C17.7595 118.817 17.9595 114.117 17.5595 110.617C16.8595 99.7167 14.8595 89.2167 11.4595 79.1167C8.05947 69.0167 5.05946 58.7167 2.25946 48.1167C1.25946 44.1167 0.559457 40.0167 0.159457 36.0167C-0.140543 32.0167 -0.0405427 28.1167 0.659457 24.3167C1.35946 20.5167 2.65946 17.0167 4.65946 13.6167C6.65946 10.2167 9.55947 7.31667 13.3595 4.81667C18.3595 1.41667 23.3595 -0.183333 28.3595 0.0166666C33.3595 0.216667 37.9595 1.41667 42.2595 3.81667C46.5595 6.21667 50.2595 9.31666 53.2595 13.2167C56.2595 17.1167 58.2595 21.3167 59.3595 25.7167C60.5595 30.6167 60.8595 35.7167 60.2595 41.1167C59.6595 46.5167 58.7595 51.8167 57.5595 57.2167C56.3595 62.6167 55.0595 67.9167 53.5595 73.2167C52.0595 78.5167 51.0595 83.6167 50.3595 88.4167C49.4595 94.8167 48.4595 101.417 47.1595 108.317C45.8595 115.217 45.4595 121.817 45.9595 128.217C46.6595 134.617 47.9595 138.117 49.8595 138.717C51.7595 139.317 54.0595 136.617 56.8595 130.817C59.0595 126.117 60.8595 121.017 62.2595 115.417C63.6595 109.917 64.7595 104.217 65.4595 98.4167C66.2595 92.6167 66.8595 86.9167 67.3595 81.1167C67.8595 75.4167 68.3595 70.0167 68.8595 65.0167C69.3595 60.8167 69.8595 56.8167 70.4595 53.0167C70.9595 49.2167 71.8595 45.7167 73.0594 42.3167C74.2594 38.9167 76.0595 35.9167 78.4595 33.1167C80.8595 30.3167 84.3595 27.9167 89.0594 25.7167C93.8595 23.5167 98.2595 22.9167 102.259 23.8167C106.259 24.7167 109.659 26.5167 112.459 29.2167C115.259 31.9167 117.659 35.0167 119.459 38.5167C121.259 42.0167 122.459 45.4167 122.959 48.6167C122.959 49.1167 123.259 50.7167 123.759 53.5167C124.259 56.3167 124.959 59.5167 125.659 63.2167C126.459 66.9167 127.359 70.8167 128.459 74.9167C129.559 79.0167 130.759 82.6167 132.059 85.6167C133.359 88.6167 134.759 90.9167 136.359 92.4167C137.859 93.9167 139.559 94.0167 141.259 92.7167C142.659 91.7167 143.359 90.1167 143.359 87.8167C143.359 85.5167 143.059 83.1167 142.559 80.5167C142.059 77.9167 141.459 75.4167 140.759 73.1167C140.059 70.7167 139.659 69.1167 139.459 68.1167C138.059 61.4167 137.259 54.7167 137.159 48.0167C136.959 41.3167 137.859 34.7167 139.759 28.1167C141.159 23.4167 143.459 19.0167 146.559 15.0167C149.759 11.0167 153.459 7.91667 157.659 5.81667C161.859 3.71667 166.359 2.91667 171.259 3.31667C176.059 3.71667 180.759 5.91667 185.159 10.0167C188.259 12.9167 190.659 16.4167 192.259 20.6167C193.859 24.8167 194.859 29.2167 195.259 33.8167C195.559 38.4167 195.459 43.0167 194.859 47.5167C194.259 52.0167 193.359 55.9167 192.159 59.1167C189.959 65.3167 187.359 71.1167 184.459 76.5167C181.559 81.9167 178.859 87.2167 176.559 92.5167C174.259 97.8167 172.359 103.217 170.959 108.917C169.559 114.517 169.359 120.717 170.159 127.417C170.659 131.317 171.359 135.217 172.359 139.217C173.259 143.217 174.159 147.217 174.859 151.217C175.559 155.117 175.959 159.117 176.059 163.017C176.159 166.917 175.559 170.917 174.359 174.717C173.159 178.617 170.959 182.317 167.659 185.817C164.359 189.317 160.659 192.117 156.459 194.117C152.259 196.117 147.759 197.117 143.159 197.117C138.559 197.117 134.259 195.417 130.459 192.117C126.659 188.917 123.859 184.617 121.959 179.317C120.059 173.917 118.559 168.217 117.559 162.217C116.559 156.217 115.659 150.217 114.959 144.317C114.259 138.417 113.259 133.317 111.859 128.917C111.159 127.117 110.359 124.917 109.359 122.417C108.459 119.917 107.259 117.417 105.859 114.817C104.459 112.317 102.959 110.017 101.259 108.017C99.5595 106.017 97.6594 104.617 95.5594 103.717C94.1594 104.017 92.6595 105.217 90.9595 107.117C89.2595 109.017 87.5594 111.217 86.0594 113.517C84.5594 115.917 83.1594 118.117 82.0594 120.317C80.9594 122.517 80.1595 124.117 79.8595 125.117C78.9595 128.117 78.4595 131.117 78.1595 134.217C77.8595 137.217 77.7595 140.217 77.7595 143.317C77.7595 146.317 77.7595 149.417 77.6595 152.517C77.5595 155.617 77.1595 158.717 76.4595 161.717C75.9595 164.117 75.3595 166.617 74.7595 169.417C74.1595 172.217 73.4595 174.917 72.6595 177.717C71.8595 180.517 70.9595 183.217 69.8595 185.817C68.7595 188.417 67.3595 190.517 65.5594 192.217C62.4594 195.417 58.5595 197.417 53.9595 198.417C49.3595 199.317 44.6595 199.317 40.1595 198.417C35.5595 197.517 31.3595 195.717 27.4595 193.117C23.5595 190.117 20.7595 186.917 19.0595 183.017Z" fill="#009DDC"/>
<path d="M191.459 162.017C189.459 160.317 188.459 159.417 188.259 159.217C188.059 159.017 188.359 159.217 188.959 159.717C189.559 160.217 190.259 160.717 190.959 161.417C191.559 162.017 191.759 162.217 191.459 162.017C186.959 158.117 183.459 153.317 180.759 147.617C178.159 141.917 176.459 136.117 175.659 129.917C174.859 123.817 175.159 117.617 176.359 111.517C177.559 105.417 179.759 99.9167 182.959 95.1167C186.059 90.4167 189.759 86.7167 194.059 83.9167C198.359 81.1167 202.959 79.4167 207.859 78.6167C212.759 77.9167 217.659 78.2167 222.559 79.7167C227.459 81.2167 232.059 83.9167 236.359 87.7167C240.259 91.3167 243.559 95.7167 246.059 100.717C248.559 105.817 250.259 111.117 251.259 116.717C252.159 122.317 252.359 127.917 251.659 133.617C250.959 139.317 249.559 144.417 247.259 149.017C244.759 154.117 241.359 158.417 236.959 161.717C232.659 165.117 227.859 167.417 222.659 168.617C217.459 169.817 212.159 169.917 206.759 168.917C201.159 167.917 196.159 165.617 191.459 162.017ZM201.459 111.717C200.959 113.117 200.659 113.717 200.759 113.517C200.859 113.317 200.959 113.017 201.259 112.417C201.559 111.817 201.759 111.317 201.959 110.917C201.959 110.517 201.859 110.717 201.459 111.717C200.359 114.217 199.559 116.817 199.159 119.717C198.759 122.617 198.659 125.417 198.959 128.317C199.259 131.117 199.959 133.817 201.059 136.517C202.159 139.117 203.859 141.417 206.059 143.317C208.359 145.417 210.659 146.517 212.859 146.617C215.059 146.717 217.159 146.117 219.159 144.917C221.159 143.717 222.859 142.117 224.359 139.917C225.859 137.817 226.859 135.617 227.359 133.317C228.559 128.717 228.759 123.917 228.059 118.917C227.259 113.917 225.259 109.617 221.959 105.917C219.959 103.917 217.959 102.617 215.959 102.117C213.959 101.617 212.059 101.717 210.259 102.417C208.459 103.117 206.759 104.317 205.259 105.917C203.659 107.717 202.359 109.617 201.459 111.717Z" fill="#E94259"/>
<path d="M269.66 162.017C267.66 160.317 266.66 159.417 266.46 159.217C266.26 159.017 266.56 159.217 267.16 159.717C267.76 160.217 268.46 160.717 269.16 161.417C269.86 162.017 270.06 162.217 269.66 162.017C265.16 158.117 261.66 153.317 258.96 147.617C256.36 141.917 254.66 136.117 253.86 129.917C253.06 123.817 253.36 117.617 254.56 111.517C255.76 105.417 257.96 99.9167 261.16 95.1167C264.26 90.4167 267.96 86.7167 272.26 83.9167C276.56 81.1167 281.16 79.4167 286.06 78.6167C290.96 77.9167 295.86 78.2167 300.76 79.7167C305.66 81.2167 310.26 83.9167 314.56 87.7167C318.46 91.3167 321.76 95.7167 324.26 100.717C326.76 105.817 328.46 111.117 329.46 116.717C330.36 122.317 330.56 127.917 329.86 133.617C329.16 139.317 327.76 144.417 325.46 149.017C322.96 154.117 319.56 158.417 315.16 161.717C310.86 165.117 306.06 167.417 300.86 168.617C295.66 169.817 290.36 169.917 284.96 168.917C279.46 167.917 274.36 165.617 269.66 162.017ZM279.66 111.717C279.16 113.117 278.86 113.717 278.96 113.517C279.06 113.317 279.16 113.017 279.46 112.417C279.76 111.817 279.96 111.317 280.16 110.917C280.26 110.517 280.16 110.717 279.66 111.717C278.56 114.217 277.76 116.817 277.36 119.717C276.96 122.617 276.86 125.417 277.16 128.317C277.46 131.117 278.16 133.817 279.26 136.517C280.36 139.117 282.06 141.417 284.26 143.317C286.56 145.417 288.86 146.517 291.06 146.617C293.26 146.717 295.36 146.117 297.36 144.917C299.36 143.717 301.06 142.117 302.56 139.917C304.06 137.817 305.06 135.617 305.56 133.317C306.76 128.717 306.96 123.917 306.26 118.917C305.46 113.917 303.46 109.617 300.16 105.917C298.16 103.917 296.16 102.617 294.16 102.117C292.16 101.617 290.26 101.717 288.46 102.417C286.66 103.117 284.96 104.317 283.46 105.917C281.96 107.717 280.66 109.617 279.66 111.717Z" fill="#FBBD2E"/>
<path d="M418.26 112.517C420.06 121.817 420.46 130.717 419.36 139.217C418.26 147.717 416.26 155.317 413.26 162.017C410.36 168.717 406.66 174.217 402.26 178.617C397.86 183.017 393.26 185.617 388.46 186.617C382.56 187.817 376.76 187.317 371.06 185.217C365.36 183.117 360.16 180.417 355.66 177.217C354.96 179.917 353.96 182.217 352.56 184.317C351.16 186.417 349.46 188.017 347.46 189.217C345.46 190.417 343.26 191.117 340.76 191.217C338.26 191.317 335.76 190.617 333.06 189.217C331.06 188.217 329.66 186.917 328.86 185.217C328.06 183.517 327.56 181.717 327.36 179.817C327.16 177.917 327.26 175.917 327.56 173.917C327.86 171.917 328.26 170.117 328.66 168.417C330.06 162.717 331.36 156.717 332.46 150.417C333.56 144.117 334.36 137.817 334.76 131.417C335.16 125.017 335.06 118.717 334.46 112.517C333.86 106.317 332.46 100.317 330.36 94.7167C329.26 91.6167 327.96 88.7167 326.56 86.0167C325.06 83.3167 323.76 80.7167 322.46 78.0167C321.16 75.3167 320.06 72.6167 319.16 69.7167C318.26 66.9167 317.76 63.7167 317.66 60.2167C317.56 57.7167 317.66 55.3167 318.06 52.8167C318.46 50.3167 319.06 48.0167 320.06 45.8167C321.06 43.6167 322.46 41.8167 324.16 40.2167C325.96 38.6167 328.26 37.4167 331.06 36.4167C334.56 35.6167 337.66 36.1167 340.36 37.9167C343.06 39.7167 345.36 42.4167 347.36 45.8167C349.26 49.3167 350.86 53.2167 352.16 57.6167C353.46 62.0167 354.46 66.4167 355.26 70.8167C356.06 75.2167 356.56 79.3167 356.96 83.1167C357.36 86.9167 357.56 89.8167 357.66 91.9167C359.86 88.3167 362.46 85.0167 365.56 81.8167C368.66 78.7167 371.96 76.2167 375.66 74.5167C379.26 72.7167 383.16 71.9167 387.16 72.0167C391.26 72.1167 395.36 73.5167 399.66 76.4167C402.56 78.5167 404.96 80.9167 407.06 83.7167C409.16 86.5167 410.96 89.5167 412.46 92.6167C413.96 95.8167 415.16 99.1167 416.16 102.517C416.96 106.017 417.66 109.317 418.26 112.517ZM374.46 156.417C377.16 155.417 379.56 153.217 381.66 150.017C383.76 146.817 385.36 143.017 386.66 138.717C387.86 134.417 388.76 130.017 389.16 125.317C389.56 120.717 389.46 116.517 388.76 112.817C388.06 109.117 386.86 106.117 385.06 103.917C383.36 101.717 380.96 100.817 377.96 101.317C374.16 102.017 371.06 104.017 368.66 107.217C366.26 110.417 364.46 114.217 363.26 118.617C362.06 123.017 361.46 127.617 361.46 132.517C361.36 137.417 361.86 141.717 362.86 145.517C363.86 149.317 365.36 152.317 367.36 154.417C369.16 156.717 371.56 157.317 374.46 156.417Z" fill="#71408A"/>
<path d="M522.059 99.0167C520.659 102.317 518.959 105.417 516.759 108.217C512.859 112.217 509.259 116.317 505.859 120.617C494.659 132.717 485.359 146.217 476.059 159.717C472.959 164.217 469.859 168.817 466.759 173.317C444.459 207.717 411.359 231.917 373.959 242.317C369.959 243.417 365.859 244.417 361.759 245.417C353.559 247.317 345.359 248.717 337.059 249.917C331.659 250.717 326.359 251.317 320.859 251.717C282.959 254.517 244.259 247.617 209.659 235.317C204.559 233.417 199.559 231.417 194.659 229.417C191.459 227.517 188.559 225.317 186.059 222.717C178.359 215.017 173.859 204.517 174.659 193.217C174.659 190.017 177.959 186.717 181.259 185.117C188.759 184.317 194.959 186.317 200.759 189.317C204.959 192.417 209.259 195.617 213.559 198.717C244.259 223.017 286.759 238.317 327.159 233.617C332.959 232.917 338.659 231.917 344.559 230.417C355.959 228.517 366.559 225.117 376.259 220.417C379.459 218.817 382.559 217.117 385.559 215.317C394.859 209.317 404.859 201.217 412.359 191.817C414.659 188.517 416.859 185.217 418.859 181.917C425.059 172.017 430.059 162.217 431.459 151.817C432.459 146.917 433.159 141.917 433.359 136.917C434.059 121.717 431.159 105.917 423.959 90.2167C424.159 87.1167 425.059 84.4167 426.559 81.8167C428.059 79.3167 430.459 77.3167 433.859 75.9167C441.059 72.9167 446.959 74.4167 451.459 80.5167C454.859 85.1167 458.059 92.5167 461.059 102.717C462.059 106.117 462.959 109.817 463.959 113.917C466.859 119.517 463.559 126.017 466.659 130.717C468.359 127.517 470.059 122.717 471.559 119.517C473.759 114.617 476.259 109.717 479.059 104.717C481.859 99.7167 484.759 95.2167 487.959 91.3167C491.059 87.4167 494.459 84.2167 498.059 81.8167C501.659 79.4167 505.359 78.3167 509.259 78.5167C514.259 78.7167 517.859 79.9167 520.059 82.0167C522.259 84.1167 523.459 86.6167 523.759 89.5167C523.959 92.5167 523.459 95.6167 522.059 99.0167Z" fill="#5FB130"/>
</svg>
