<svg width="1055" height="717" viewBox="0 0 1055 717" fill="none" xmlns="http://www.w3.org/2000/svg">
<g clip-path="url(#clip0_44_3)">
<path d="M307.8 316.2C305.4 310.8 304 304.7 303.7 297.7C303.4 290.7 303.4 283.8 304 277.1C304.5 270.3 305.1 263.9 305.8 258C306.5 252 306.7 247.3 306.3 243.8C305.6 232.9 303.6 222.4 300.2 212.3C296.8 202.2 293.8 191.9 291 181.3C290 177.3 289.3 173.2 288.9 169.2C288.6 165.2 288.7 161.3 289.4 157.5C290.1 153.7 291.4 150.2 293.4 146.8C295.4 143.4 298.3 140.5 302.1 138C307.1 134.6 312.1 133 317.1 133.2C322.1 133.4 326.7 134.6 331 137C335.3 139.4 339 142.5 342 146.4C345 150.3 347 154.5 348.1 158.9C349.3 163.8 349.6 168.9 349 174.3C348.4 179.7 347.5 185 346.3 190.4C345.1 195.8 343.8 201.1 342.3 206.4C340.8 211.7 339.8 216.8 339.1 221.6C338.2 228 337.2 234.6 335.9 241.5C334.6 248.4 334.2 255 334.7 261.4C335.4 267.8 336.7 271.3 338.6 271.9C340.5 272.5 342.8 269.8 345.6 264C347.8 259.3 349.6 254.2 351 248.6C352.4 243.1 353.5 237.4 354.2 231.6C355 225.8 355.6 220.1 356.1 214.3C356.6 208.6 357.1 203.2 357.6 198.2C358.1 194 358.6 190 359.2 186.2C359.7 182.4 360.6 178.9 361.8 175.5C363 172.1 364.8 169.1 367.2 166.3C369.6 163.5 373.1 161.1 377.8 158.9C382.6 156.7 387 156.1 391 157C395 157.9 398.4 159.7 401.2 162.4C404 165.1 406.4 168.2 408.2 171.7C410 175.2 411.2 178.6 411.7 181.8C411.7 182.3 412 183.9 412.5 186.7C413 189.5 413.7 192.7 414.4 196.4C415.2 200.1 416.1 204 417.2 208.1C418.3 212.2 419.5 215.8 420.8 218.8C422.1 221.8 423.5 224.1 425.1 225.6C426.6 227.1 428.3 227.2 430 225.9C431.4 224.9 432.1 223.3 432.1 221C432.1 218.7 431.8 216.3 431.3 213.7C430.8 211.1 430.2 208.6 429.5 206.3C428.8 203.9 428.4 202.3 428.2 201.3C426.8 194.6 426 187.9 425.9 181.2C425.7 174.5 426.6 167.9 428.5 161.3C429.9 156.6 432.2 152.2 435.3 148.2C438.5 144.2 442.2 141.1 446.4 139C450.6 136.9 455.1 136.1 460 136.5C464.8 136.9 469.5 139.1 473.9 143.2C477 146.1 479.4 149.6 481 153.8C482.6 158 483.6 162.4 484 167C484.3 171.6 484.2 176.2 483.6 180.7C483 185.2 482.1 189.1 480.9 192.3C478.7 198.5 476.1 204.3 473.2 209.7C470.3 215.1 467.6 220.4 465.3 225.7C463 231 461.1 236.4 459.7 242.1C458.3 247.7 458.1 253.9 458.9 260.6C459.4 264.5 460.1 268.4 461.1 272.4C462 276.4 462.9 280.4 463.6 284.4C464.3 288.3 464.7 292.3 464.8 296.2C464.9 300.1 464.3 304.1 463.1 307.9C461.9 311.8 459.7 315.5 456.4 319C453.1 322.5 449.4 325.3 445.2 327.3C441 329.3 436.5 330.3 431.9 330.3C427.3 330.3 423 328.6 419.2 325.3C415.4 322.1 412.6 317.8 410.7 312.5C408.8 307.1 407.3 301.4 406.3 295.4C405.3 289.4 404.4 283.4 403.7 277.5C403 271.6 402 266.5 400.6 262.1C399.9 260.3 399.1 258.1 398.1 255.6C397.2 253.1 396 250.6 394.6 248C393.2 245.5 391.7 243.2 390 241.2C388.3 239.2 386.4 237.8 384.3 236.9C382.9 237.2 381.4 238.4 379.7 240.3C378 242.2 376.3 244.4 374.8 246.7C373.3 249.1 371.9 251.3 370.8 253.5C369.7 255.7 368.9 257.3 368.6 258.3C367.7 261.3 367.2 264.3 366.9 267.4C366.6 270.4 366.5 273.4 366.5 276.5C366.5 279.5 366.5 282.6 366.4 285.7C366.3 288.8 365.9 291.9 365.2 294.9C364.7 297.3 364.1 299.8 363.5 302.6C362.9 305.4 362.2 308.1 361.4 310.9C360.6 313.7 359.7 316.4 358.6 319C357.5 321.6 356.1 323.7 354.3 325.4C351.2 328.6 347.3 330.6 342.7 331.6C338.1 332.5 333.4 332.5 328.9 331.6C324.3 330.7 320.1 328.9 316.2 326.3C312.3 323.3 309.5 320.1 307.8 316.2Z" fill="#009DDC"/>
<path d="M480.2 295.2C478.2 293.5 477.2 292.6 477 292.4C476.8 292.2 477.1 292.4 477.7 292.9C478.3 293.4 479 293.9 479.7 294.6C480.3 295.2 480.5 295.4 480.2 295.2C475.7 291.3 472.2 286.5 469.5 280.8C466.9 275.1 465.2 269.3 464.4 263.1C463.6 257 463.9 250.8 465.1 244.7C466.3 238.6 468.5 233.1 471.7 228.3C474.8 223.6 478.5 219.9 482.8 217.1C487.1 214.3 491.7 212.6 496.6 211.8C501.5 211.1 506.4 211.4 511.3 212.9C516.2 214.4 520.8 217.1 525.1 220.9C529 224.5 532.3 228.9 534.8 233.9C537.3 239 539 244.3 540 249.9C540.9 255.5 541.1 261.1 540.4 266.8C539.7 272.5 538.3 277.6 536 282.2C533.5 287.3 530.1 291.6 525.7 294.9C521.4 298.3 516.6 300.6 511.4 301.8C506.2 303 500.9 303.1 495.5 302.1C489.9 301.1 484.9 298.8 480.2 295.2ZM490.2 244.9C489.7 246.3 489.4 246.9 489.5 246.7C489.6 246.5 489.7 246.2 490 245.6C490.3 245 490.5 244.5 490.7 244.1C490.7 243.7 490.6 243.9 490.2 244.9C489.1 247.4 488.3 250 487.9 252.9C487.5 255.8 487.4 258.6 487.7 261.5C488 264.3 488.7 267 489.8 269.7C490.9 272.3 492.6 274.6 494.8 276.5C497.1 278.6 499.4 279.7 501.6 279.8C503.8 279.9 505.9 279.3 507.9 278.1C509.9 276.9 511.6 275.3 513.1 273.1C514.6 271 515.6 268.8 516.1 266.5C517.3 261.9 517.5 257.1 516.8 252.1C516 247.1 514 242.8 510.7 239.1C508.7 237.1 506.7 235.8 504.7 235.3C502.7 234.8 500.8 234.9 499 235.6C497.2 236.3 495.5 237.5 494 239.1C492.4 240.9 491.1 242.8 490.2 244.9Z" fill="#E94259"/>
<path d="M558.4 295.2C556.4 293.5 555.4 292.6 555.2 292.4C555 292.2 555.3 292.4 555.9 292.9C556.5 293.4 557.2 293.9 557.9 294.6C558.6 295.2 558.8 295.4 558.4 295.2C553.9 291.3 550.4 286.5 547.7 280.8C545.1 275.1 543.4 269.3 542.6 263.1C541.8 257 542.1 250.8 543.3 244.7C544.5 238.6 546.7 233.1 549.9 228.3C553 223.6 556.7 219.9 561 217.1C565.3 214.3 569.9 212.6 574.8 211.8C579.7 211.1 584.6 211.4 589.5 212.9C594.4 214.4 599 217.1 603.3 220.9C607.2 224.5 610.5 228.9 613 233.9C615.5 239 617.2 244.3 618.2 249.9C619.1 255.5 619.3 261.1 618.6 266.8C617.9 272.5 616.5 277.6 614.2 282.2C611.7 287.3 608.3 291.6 603.9 294.9C599.6 298.3 594.8 300.6 589.6 301.8C584.4 303 579.1 303.1 573.7 302.1C568.2 301.1 563.1 298.8 558.4 295.2ZM568.4 244.9C567.9 246.3 567.6 246.9 567.7 246.7C567.8 246.5 567.9 246.2 568.2 245.6C568.5 245 568.7 244.5 568.9 244.1C569 243.7 568.9 243.9 568.4 244.9C567.3 247.4 566.5 250 566.1 252.9C565.7 255.8 565.6 258.6 565.9 261.5C566.2 264.3 566.9 267 568 269.7C569.1 272.3 570.8 274.6 573 276.5C575.3 278.6 577.6 279.7 579.8 279.8C582 279.9 584.1 279.3 586.1 278.1C588.1 276.9 589.8 275.3 591.3 273.1C592.8 271 593.8 268.8 594.3 266.5C595.5 261.9 595.7 257.1 595 252.1C594.2 247.1 592.2 242.8 588.9 239.1C586.9 237.1 584.9 235.8 582.9 235.3C580.9 234.8 579 234.9 577.2 235.6C575.4 236.3 573.7 237.5 572.2 239.1C570.7 240.9 569.4 242.8 568.4 244.9Z" fill="#FBBD2E"/>
<path d="M707 245.7C708.8 255 709.2 263.9 708.1 272.4C707 280.9 705 288.5 702 295.2C699.1 301.9 695.4 307.4 691 311.8C686.6 316.2 682 318.8 677.2 319.8C671.3 321 665.5 320.5 659.8 318.4C654.1 316.3 648.9 313.6 644.4 310.4C643.7 313.1 642.7 315.4 641.3 317.5C639.9 319.6 638.2 321.2 636.2 322.4C634.2 323.6 632 324.3 629.5 324.4C627 324.5 624.5 323.8 621.8 322.4C619.8 321.4 618.4 320.1 617.6 318.4C616.8 316.7 616.3 314.9 616.1 313C615.9 311.1 616 309.1 616.3 307.1C616.6 305.1 617 303.3 617.4 301.6C618.8 295.9 620.1 289.9 621.2 283.6C622.3 277.3 623.1 271 623.5 264.6C623.9 258.2 623.8 251.9 623.2 245.7C622.6 239.5 621.2 233.5 619.1 227.9C618 224.8 616.7 221.9 615.3 219.2C613.8 216.5 612.5 213.9 611.2 211.2C609.9 208.5 608.8 205.8 607.9 202.9C607 200.1 606.5 196.9 606.4 193.4C606.3 190.9 606.4 188.5 606.8 186C607.2 183.5 607.8 181.2 608.8 179C609.8 176.8 611.2 175 612.9 173.4C614.7 171.8 617 170.6 619.8 169.6C623.3 168.8 626.4 169.3 629.1 171.1C631.8 172.9 634.1 175.6 636.1 179C638 182.5 639.6 186.4 640.9 190.8C642.2 195.2 643.2 199.6 644 204C644.8 208.4 645.3 212.5 645.7 216.3C646.1 220.1 646.3 223 646.4 225.1C648.6 221.5 651.2 218.2 654.3 215C657.4 211.9 660.7 209.4 664.4 207.7C668 205.9 671.9 205.1 675.9 205.2C680 205.3 684.1 206.7 688.4 209.6C691.3 211.7 693.7 214.1 695.8 216.9C697.9 219.7 699.7 222.7 701.2 225.8C702.7 229 703.9 232.3 704.9 235.7C705.7 239.2 706.4 242.5 707 245.7ZM663.2 289.6C665.9 288.6 668.3 286.4 670.4 283.2C672.5 280 674.1 276.2 675.4 271.9C676.6 267.6 677.5 263.2 677.9 258.5C678.3 253.9 678.2 249.7 677.5 246C676.8 242.3 675.6 239.3 673.8 237.1C672.1 234.9 669.7 234 666.7 234.5C662.9 235.2 659.8 237.2 657.4 240.4C655 243.6 653.2 247.4 652 251.8C650.8 256.2 650.2 260.8 650.2 265.7C650.1 270.6 650.6 274.9 651.6 278.7C652.6 282.5 654.1 285.5 656.1 287.6C657.9 289.9 660.3 290.5 663.2 289.6Z" fill="#71408A"/>
<path d="M810.8 232.2C809.4 235.5 807.7 238.6 805.5 241.4C801.6 245.4 798 249.5 794.6 253.8C783.4 265.9 774.1 279.4 764.8 292.9C761.7 297.4 758.6 302 755.5 306.5C733.2 340.9 700.1 365.1 662.7 375.5C658.7 376.6 654.6 377.6 650.5 378.6C642.3 380.5 634.1 381.9 625.8 383.1C620.4 383.9 615.1 384.5 609.6 384.9C571.7 387.7 533 380.8 498.4 368.5C493.3 366.6 488.3 364.6 483.4 362.6C480.2 360.7 477.3 358.5 474.8 355.9C467.1 348.2 462.6 337.7 463.4 326.4C463.4 323.2 466.7 319.9 470 318.3C477.5 317.5 483.7 319.5 489.5 322.5C493.7 325.6 498 328.8 502.3 331.9C533 356.2 575.5 371.5 615.9 366.8C621.7 366.1 627.4 365.1 633.3 363.6C644.7 361.7 655.3 358.3 665 353.6C668.2 352 671.3 350.3 674.3 348.5C683.6 342.5 693.6 334.4 701.1 325C703.4 321.7 705.6 318.4 707.6 315.1C713.8 305.2 718.8 295.4 720.2 285C721.2 280.1 721.9 275.1 722.1 270.1C722.8 254.9 719.9 239.1 712.7 223.4C712.9 220.3 713.8 217.6 715.3 215C716.8 212.5 719.2 210.5 722.6 209.1C729.8 206.1 735.7 207.6 740.2 213.7C743.6 218.3 746.8 225.7 749.8 235.9C750.8 239.3 751.7 243 752.7 247.1C755.6 252.7 752.3 259.2 755.4 263.9C757.1 260.7 758.8 255.9 760.3 252.7C762.5 247.8 765 242.9 767.8 237.9C770.6 232.9 773.5 228.4 776.7 224.5C779.8 220.6 783.2 217.4 786.8 215C790.4 212.6 794.1 211.5 798 211.7C803 211.9 806.6 213.1 808.8 215.2C811 217.3 812.2 219.8 812.5 222.7C812.7 225.7 812.2 228.8 810.8 232.2Z" fill="#5FB130"/>
<path d="M323.712 434.55V424.857C323.712 421.476 323.873 416.291 324.227 409.335H319.751C312.763 408.498 309.285 407.371 309.285 405.922V403.989C309.832 402.701 310.992 402.057 312.763 402.057H322.713C324.485 402.057 325.966 401.896 327.222 401.574C328.961 401.896 330.603 402.057 332.181 402.057H341.166C344.805 402.057 346.64 403.506 346.64 406.405C345.481 408.691 344.16 409.818 342.647 409.818C339.266 409.496 336.593 409.335 334.693 409.335H331.183V413.682C331.183 417.032 331.344 419.608 331.698 421.443C331.344 423.472 331.183 425.759 331.183 428.238C331.183 429.043 331.344 431.458 331.698 435.548C330.539 437.802 329.218 438.929 327.705 438.929C325.579 438.929 324.259 437.48 323.712 434.55ZM385.316 417.096C386.539 421.121 387.151 423.698 387.151 424.889C387.151 435.902 381.484 441.409 370.18 441.409C362.613 441.409 357.106 437.899 353.66 430.847C352.437 428.335 351.825 425.726 351.825 423.054C351.825 415.969 354.562 411.074 360.069 408.369C365.704 406.855 368.763 406.083 369.246 406.083C375.011 406.083 380.356 409.754 385.316 417.096ZM371.146 434.163C376.685 434.163 379.455 431.265 379.455 425.501C379.455 420.091 375.816 416.581 368.538 414.971C363.514 416.291 361.003 418.803 361.003 422.474C360.745 422.925 360.616 423.44 360.616 423.987C361.808 430.782 365.318 434.163 371.146 434.163ZM399.936 433.069C399.517 434.196 399.002 434.743 398.39 434.743H396.2C395.234 434.743 394.59 433.745 394.268 431.78C394.268 412.877 395.202 403.442 397.102 403.442H398.648C400.709 403.442 404.541 406.308 410.112 412.072C418.613 420.767 423.122 425.147 423.637 425.211C425.215 412.684 426.922 406.405 428.79 406.405H432.01C433.556 407.016 434.328 407.95 434.328 409.238C431.656 419.221 430.335 425.694 430.335 428.689C430.239 428.721 429.981 430.525 429.562 434.099C428.435 434.872 427.34 435.258 426.342 435.258C426.245 435.258 426.117 435.226 425.956 435.13C425.795 435.226 425.634 435.258 425.44 435.258C424.023 435.258 420.288 432.328 414.234 426.499L402.383 414.777C401.61 424.02 400.805 430.106 399.936 433.069ZM444.569 419.221C443.377 417.032 442.766 414.874 442.766 412.781V411.621C444.504 405.6 447.499 402.605 451.782 402.605H454.101C456.065 402.83 457.064 403.474 457.064 404.537V406.083C456.967 406.501 455.228 407.467 451.911 409.045C450.623 410.591 449.979 411.911 449.979 413.038C449.979 415.389 452.298 417.965 456.935 420.767C460.123 424.406 461.701 427.304 461.701 429.526C461.701 433.906 458.255 437.416 451.396 440.089H448.304C445.471 439.799 444.054 438.736 444.054 436.869C444.054 436.675 444.021 436.514 443.925 436.353C443.925 434.518 445.471 433.423 448.562 433.004C450.784 433.004 452.233 432.392 452.942 431.201C453.618 430.525 453.972 429.687 453.972 428.753C453.972 427.755 451.621 425.437 446.888 421.798C445.986 421.476 445.213 420.606 444.569 419.221ZM516.832 417.096C518.056 421.121 518.668 423.698 518.668 424.889C518.668 435.902 513 441.409 501.697 441.409C494.129 441.409 488.622 437.899 485.177 430.847C483.953 428.335 483.341 425.726 483.341 423.054C483.341 415.969 486.078 411.074 491.585 408.369C497.221 406.855 500.28 406.083 500.763 406.083C506.527 406.083 511.873 409.754 516.832 417.096ZM502.663 434.163C508.202 434.163 510.971 431.265 510.971 425.501C510.971 420.091 507.332 416.581 500.054 414.971C495.031 416.291 492.519 418.803 492.519 422.474C492.261 422.925 492.132 423.44 492.132 423.987C493.324 430.782 496.834 434.163 502.663 434.163ZM524.013 424.503V423.601C524.013 421.572 523.788 419.318 523.369 416.774C523.53 416.355 523.723 416.13 524.013 416.13C523.595 414.23 523.369 413.006 523.369 412.394V405.439C524.045 401.413 525.044 399.384 526.332 399.384C526.332 399.288 526.493 399.256 526.847 399.256H543.077C543.947 398.998 544.72 398.869 545.396 398.869C546.781 399.481 547.457 400.64 547.457 402.347V402.605C547.038 404.247 546.491 405.052 545.782 405.052C545.75 405.31 545.106 405.567 543.85 405.825C542.562 405.761 541.918 405.664 541.918 405.567L541.403 405.696C534.189 405.857 530.228 405.954 529.552 405.954V409.689C529.552 410.494 529.713 412.845 530.067 416.774H543.721C545.525 417.354 546.426 418.674 546.426 420.767V421.154C545.847 422.57 544.784 423.73 543.206 424.631C535.767 423.859 531.613 423.472 530.711 423.472V423.601L530.196 439.574C528.65 440.089 527.395 440.346 526.461 440.346H525.559C525.076 440.346 524.561 439.67 524.013 438.285V431.845C524.013 431.008 523.852 429.945 523.498 428.625C523.852 426.435 524.013 425.05 524.013 424.503ZM571.641 419.221C570.45 417.032 569.838 414.874 569.838 412.781V411.621C571.577 405.6 574.572 402.605 578.855 402.605H581.173C583.138 402.83 584.136 403.474 584.136 404.537V406.083C584.039 406.501 582.3 407.467 578.983 409.045C577.695 410.591 577.051 411.911 577.051 413.038C577.051 415.389 579.37 417.965 584.007 420.767C587.195 424.406 588.773 427.304 588.773 429.526C588.773 433.906 585.327 437.416 578.468 440.089H575.377C572.543 439.799 571.126 438.736 571.126 436.869C571.126 436.675 571.094 436.514 570.997 436.353C570.997 434.518 572.543 433.423 575.634 433.004C577.856 433.004 579.306 432.392 580.014 431.201C580.69 430.525 581.044 429.687 581.044 428.753C581.044 427.755 578.694 425.437 573.96 421.798C573.058 421.476 572.285 420.606 571.641 419.221ZM604.746 406.083C605.1 406.115 607.741 408.594 612.732 413.554C618.818 405.664 622.876 401.703 624.969 401.703H627.545C630.25 401.703 633.728 411.106 637.979 429.913V431.458C637.979 432.006 637.335 432.714 636.047 433.648H631.925C630.637 433.648 628.35 427.336 625.098 414.713C625.001 414.713 624.744 413.779 624.325 411.879H624.196C618.496 418.674 614.922 422.055 613.505 422.055H613.247C613.054 422.055 612.893 422.023 612.732 421.926C612.571 422.023 612.41 422.055 612.217 422.055H612.088C611.154 422.055 607.58 418.932 601.397 412.652V419.737C601.397 429.687 600.978 434.679 600.109 434.679L599.851 434.808H597.79C596.631 434.808 595.858 432.875 595.471 429.011C595.214 425.887 595.085 422.152 595.085 417.804V407.242C595.085 405.31 595.761 404.054 597.146 403.506C598.015 403.41 598.434 403.345 598.434 403.249C600.753 403.249 602.846 404.183 604.746 406.083ZM649.508 404.279C652.052 406.469 653.308 411.235 653.308 418.577C653.952 421.637 654.435 427.981 654.725 437.641C654.306 438.962 653.501 439.896 652.342 440.507H649.959C647.415 440.507 646.159 433.519 646.159 419.543V407.628C646.159 405.406 647.286 404.279 649.508 404.279ZM672.372 410.881V414.616C672.372 419.415 672.565 425.92 672.951 434.196H673.499C684.641 434.518 691.082 434.679 692.853 434.679L694.559 436.546V438.865C694.559 439.348 693.787 439.992 692.273 440.733H678.619C669.892 440.733 665.545 439.477 665.545 436.997V427.208C665.545 412.298 666.479 404.827 668.379 404.827H669.538C671.438 405.31 672.372 407.306 672.372 410.881ZM700.034 434.55V422.764C700.034 419.737 699.808 414.906 699.325 408.305H700.034L699.325 407.242V405.632C699.325 402.766 702.9 401.349 710.081 401.349H712.207C721.771 401.349 726.537 402.766 726.537 405.632C725.828 407.081 725.12 407.789 724.411 407.789C720.579 407.789 715.556 407.596 709.341 407.242C708.407 407.596 707.698 407.789 707.215 407.789V417.418L707.924 418.481L712.947 417.965H720.096C720.837 417.965 721.803 418.674 722.962 420.091V422.248C722.962 422.796 721.996 423.504 720.096 424.374H708.632C707.698 424.47 707.215 424.857 707.215 425.469C707.698 430.46 708.149 433.133 708.632 433.487C716.2 432.779 720.483 432.425 721.545 432.425L723.671 434.55V436.707C723.542 438.736 719.806 439.735 712.432 439.735C709.92 439.735 706.99 439.606 703.608 439.38C701.225 439.38 700.034 437.77 700.034 434.55ZM736.842 419.221C735.65 417.032 735.038 414.874 735.038 412.781V411.621C736.777 405.6 739.772 402.605 744.055 402.605H746.374C748.338 402.83 749.336 403.474 749.336 404.537V406.083C749.24 406.501 747.501 407.467 744.184 409.045C742.896 410.591 742.252 411.911 742.252 413.038C742.252 415.389 744.57 417.965 749.208 420.767C752.396 424.406 753.974 427.304 753.974 429.526C753.974 433.906 750.528 437.416 743.669 440.089H740.577C737.743 439.799 736.326 438.736 736.326 436.869C736.326 436.675 736.294 436.514 736.198 436.353C736.198 434.518 737.743 433.423 740.835 433.004C743.057 433.004 744.506 432.392 745.214 431.201C745.891 430.525 746.245 429.687 746.245 428.753C746.245 427.755 743.894 425.437 739.16 421.798C738.259 421.476 737.486 420.606 736.842 419.221ZM764.053 400.222C767.177 400.222 769.012 408.144 769.528 424.02V424.728C769.302 427.175 768.207 428.399 766.243 428.399H765.148C762.701 428.399 761.477 420.606 761.477 404.988V402.057C762.218 400.834 763.055 400.222 764.053 400.222ZM763.667 434.614H766.597C768.562 434.614 769.528 435.709 769.528 437.931V438.285C769.528 440.958 768.433 442.311 766.243 442.311H765.856C763.86 442.311 762.636 440.475 762.218 436.836V436.096C762.218 435.709 762.701 435.226 763.667 434.614Z" fill="#1A1413"/>
<path d="M940.8 224.7C941.1 224.4 941.5 224.3 941.9 224.4C942.6 224.5 943 225.2 942.9 225.8C941 236.7 944.5 246.4 952.2 251.7C958.8 256.3 967.2 256.5 974.1 252.4C981.3 248.1 985 240.1 983.6 232C982.4 224.8 977.3 219.4 970.4 218.1C964 216.8 958.7 219.2 956.4 224.5C954 230 955.5 236.7 960 240C963 242.3 966.1 240.8 968 238.7C969.9 236.6 970.9 233.3 969.3 231.6C968.8 231.1 968.9 230.3 969.4 229.9C969.9 229.4 970.7 229.5 971.1 230C973.8 232.8 972.4 237.4 969.8 240.4C967.3 243.2 962.8 245.3 958.5 242.1C953.1 238.1 951.2 230.1 954.1 223.6C956.9 217.2 963.2 214.3 970.8 215.8C978.7 217.4 984.5 223.5 985.9 231.7C987.5 240.8 983.3 249.8 975.3 254.6C967.6 259.2 958.2 258.9 950.7 253.8C942.2 247.9 938.3 237.3 940.4 225.5C940.5 225.1 940.6 224.8 940.8 224.7Z" fill="#FACAB4"/>
<path d="M840.9 683.2C841.2 682.9 841.6 682.8 842 682.9C842.7 683 843.1 683.7 843 684.3C841.1 695.2 844.6 704.9 852.3 710.2C858.9 714.8 867.3 715 874.2 710.9C881.4 706.6 885.1 698.6 883.7 690.5C882.5 683.3 877.4 677.9 870.5 676.6C864.1 675.3 858.8 677.7 856.5 683C854.1 688.5 855.6 695.2 860.1 698.5C863.1 700.8 866.2 699.3 868.1 697.2C870 695.1 871 691.8 869.4 690.1C868.9 689.6 869 688.8 869.5 688.4C870 687.9 870.8 688 871.2 688.5C873.9 691.3 872.5 695.9 869.9 698.9C867.4 701.7 862.9 703.8 858.6 700.6C853.2 696.6 851.3 688.6 854.2 682.1C857 675.7 863.3 672.8 870.9 674.3C878.8 675.9 884.6 682 886 690.2C887.6 699.3 883.4 708.3 875.4 713.1C867.7 717.7 858.3 717.4 850.8 712.3C842.3 706.4 838.4 695.8 840.5 684C840.5 683.6 840.7 683.3 840.9 683.2Z" fill="#71408A"/>
<path d="M145.5 245.3C145.8 245 146.2 244.9 146.6 245C147.3 245.1 147.7 245.8 147.6 246.4C145.7 257.3 149.2 267 156.9 272.3C163.5 276.9 171.9 277.1 178.8 273C186 268.7 189.7 260.7 188.3 252.6C187.1 245.4 182 240 175.1 238.7C168.7 237.4 163.4 239.8 161.1 245.1C158.7 250.6 160.2 257.3 164.7 260.6C167.7 262.9 170.8 261.4 172.7 259.3C174.6 257.2 175.6 253.9 174 252.2C173.5 251.7 173.6 250.9 174.1 250.5C174.6 250 175.4 250.1 175.8 250.6C178.5 253.4 177.1 258 174.5 261C172 263.8 167.5 265.9 163.2 262.7C157.8 258.7 155.9 250.7 158.8 244.2C161.6 237.8 167.9 234.9 175.5 236.4C183.4 238 189.2 244.1 190.6 252.3C192.2 261.4 188 270.4 180 275.2C172.3 279.8 162.9 279.5 155.4 274.4C146.9 268.5 143 257.9 145.1 246.1C145.2 245.7 145.4 245.4 145.5 245.3Z" fill="#FACAB4"/>
<path d="M1049.2 614.7C1048.6 614.7 1048.2 614.3 1048.2 613.7V600.6C1048.2 593.9 1042.8 588.5 1036.1 588.5C1028.3 588.5 1022 582.2 1022 574.4C1022 567.7 1016.6 562.3 1009.9 562.3C1002.1 562.3 995.8 556 995.8 548.2C995.8 541.5 990.4 536.1 983.7 536.1C975.9 536.1 969.6 529.8 969.6 522C969.6 515.3 964.2 509.9 957.5 509.9H944.4C943.8 509.9 943.4 509.5 943.4 508.9C943.4 508.3 943.8 507.9 944.4 507.9H957.5C965.3 507.9 971.6 514.2 971.6 522C971.6 528.7 977 534.1 983.7 534.1C991.5 534.1 997.8 540.4 997.8 548.2C997.8 554.9 1003.2 560.3 1009.9 560.3C1017.7 560.3 1024 566.6 1024 574.4C1024 581.1 1029.4 586.5 1036.1 586.5C1043.9 586.5 1050.2 592.8 1050.2 600.6V613.7C1050.2 614.2 1049.8 614.7 1049.2 614.7Z" fill="#93CEBE"/>
<path d="M1040.1 629C1039.5 629 1039.1 628.6 1039.1 628V614.9C1039.1 608.2 1033.7 602.8 1027 602.8C1019.2 602.8 1012.9 596.5 1012.9 588.7C1012.9 582 1007.5 576.6 1000.8 576.6C993 576.6 986.7 570.3 986.7 562.5C986.7 555.8 981.3 550.4 974.6 550.4C966.8 550.4 960.5 544.1 960.5 536.3C960.5 529.6 955.1 524.2 948.4 524.2H935.3C934.7 524.2 934.3 523.8 934.3 523.2C934.3 522.6 934.7 522.2 935.3 522.2H948.4C956.2 522.2 962.5 528.5 962.5 536.3C962.5 543 967.9 548.4 974.6 548.4C982.4 548.4 988.7 554.7 988.7 562.5C988.7 569.2 994.1 574.6 1000.8 574.6C1008.6 574.6 1014.9 580.9 1014.9 588.7C1014.9 595.4 1020.3 600.8 1027 600.8C1034.8 600.8 1041.1 607.1 1041.1 614.9V628C1041.1 628.5 1040.6 629 1040.1 629Z" fill="#93CEBE"/>
<path d="M675.2 604.9C675 605.4 674.5 605.6 674.1 605.4L663.4 601.6C657.9 599.6 651.9 602.5 649.9 608C647.6 614.4 640.6 617.7 634.2 615.4C628.7 613.4 622.7 616.3 620.7 621.8C618.4 628.2 611.4 631.5 605 629.2C599.5 627.2 593.5 630.1 591.5 635.6C589.2 642 582.2 645.3 575.8 643C570.3 641 564.3 643.9 562.3 649.4L558.5 660.1C558.3 660.6 557.8 660.8 557.4 660.6C556.9 660.4 556.7 659.9 556.9 659.5L560.7 648.8C563 642.4 570 639.1 576.4 641.4C581.9 643.4 587.9 640.5 589.9 635C592.2 628.6 599.2 625.3 605.6 627.6C611.1 629.6 617.1 626.7 619.1 621.2C621.4 614.8 628.4 611.5 634.8 613.8C640.3 615.8 646.3 612.9 648.3 607.4C650.6 601 657.6 597.7 664 600L674.7 603.8C675.1 603.9 675.3 604.4 675.2 604.9Z" fill="#5FB130"/>
<path d="M684.3 616.5C684.1 617 683.6 617.2 683.2 617L672.5 613.2C667 611.2 661 614.1 659 619.6C656.7 626 649.7 629.3 643.3 627C637.8 625 631.8 627.9 629.8 633.4C627.5 639.8 620.5 643.1 614.1 640.8C608.6 638.8 602.6 641.7 600.6 647.2C598.3 653.6 591.3 656.9 584.9 654.6C579.4 652.6 573.4 655.5 571.4 661L567.6 671.7C567.4 672.2 566.9 672.4 566.5 672.2C566 672 565.8 671.5 566 671.1L569.8 660.4C572.1 654 579.1 650.7 585.5 653C591 655 597 652.1 599 646.6C601.3 640.2 608.3 636.9 614.7 639.2C620.2 641.2 626.2 638.3 628.2 632.8C630.5 626.4 637.5 623.1 643.9 625.4C649.4 627.4 655.4 624.5 657.4 619C659.7 612.6 666.7 609.3 673.1 611.6L683.8 615.4C684.2 615.6 684.4 616.1 684.3 616.5Z" fill="#5FB130"/>
<path d="M336.7 64.6C336.4 64.6 336.1 64.3 336.1 64L335.8 55.8C335.6 51.6 332.1 48.4 328 48.5C323.1 48.7 319 44.9 318.9 40C318.7 35.8 315.2 32.6 311.1 32.7C306.2 32.9 302.1 29.1 302 24.2C301.8 20 298.3 16.8 294.2 16.9C289.3 17.1 285.2 13.3 285.1 8.4C284.9 4.2 281.4 1 277.3 1.1L269.1 1.4C268.8 1.4 268.5 1.1 268.5 0.8C268.5 0.5 268.8 0.2 269.1 0.2L277.3 -0.0999999C282.2 -0.3 286.3 3.5 286.4 8.4C286.6 12.6 290.1 15.8 294.2 15.7C299.1 15.5 303.2 19.3 303.3 24.2C303.5 28.4 307 31.6 311.1 31.5C316 31.3 320.1 35.1 320.2 40C320.4 44.2 323.9 47.4 328 47.3C332.9 47.1 337 50.9 337.1 55.8L337.4 64C337.3 64.3 337 64.6 336.7 64.6Z" fill="#FBBD2E"/>
<path d="M331.3 73.8C331 73.8 330.7 73.5 330.7 73.2L330.4 65C330.2 60.8 326.7 57.6 322.6 57.7C317.7 57.9 313.6 54.1 313.5 49.2C313.3 45 309.8 41.8 305.7 41.9C300.8 42.1 296.7 38.3 296.6 33.4C296.4 29.2 292.9 26 288.8 26.1C283.9 26.3 279.8 22.5 279.7 17.6C279.5 13.4 276 10.2 271.9 10.3L263.7 10.6C263.4 10.6 263.1 10.3 263.1 10C263.1 9.7 263.4 9.4 263.7 9.4L271.9 9.1C276.8 8.9 280.9 12.7 281 17.6C281.2 21.8 284.7 25 288.8 24.9C293.7 24.7 297.8 28.5 297.9 33.4C298.1 37.6 301.6 40.8 305.7 40.7C310.6 40.5 314.7 44.3 314.8 49.2C315 53.4 318.5 56.6 322.6 56.5C327.5 56.3 331.6 60.1 331.7 65L332 73.2C331.9 73.5 331.6 73.7 331.3 73.8Z" fill="#FBBD2E"/>
<path d="M160.8 127.2C160.4 127.2 160 127.1 159.6 127C157.6 126.5 156.3 124.7 156.5 122.6C157.8 105.7 160.8 84.4 167.9 79C169.5 77.8 171.2 77.3 173 77.7C174.8 78 176.2 79.1 177 80.7C180.8 88.1 172.3 108.8 164.5 124.8C163.8 126.4 162.4 127.2 160.8 127.2ZM171.9 80.3C171.1 80.3 170.3 80.6 169.5 81.2C164.6 85 160.9 99.8 159.1 122.9C159 123.9 159.7 124.4 160.3 124.6C160.9 124.8 161.7 124.6 162.2 123.8C172.7 102.2 177.2 87 174.7 82C174.2 81.1 173.6 80.6 172.6 80.4C172.4 80.3 172.1 80.3 171.9 80.3Z" fill="#D1E4BE"/>
<path d="M151 100.5C151.7 103.5 147.8 105.4 145.9 103C137.1 91.7 123.7 72.3 128.2 63.3C135.4 48.9 146.5 81.7 151 100.5Z" fill="#D1E4BE"/>
<path d="M156.5 81.2C156.3 81.2 156.1 81.2 155.9 81.2C153.8 80.9 152.3 79.3 152.3 77.2C151.5 54.2 153.4 40.3 158.1 35.9C159.4 34.7 160.8 34.2 162.5 34.4C164.1 34.6 165.4 35.4 166.4 36.8C169.8 42 167.8 56 160.6 78.4C159.9 80.1 158.3 81.2 156.5 81.2ZM161.8 36.9C161.1 36.9 160.4 37.2 159.8 37.8C155.9 41.5 154.1 55.5 154.8 77.1C154.8 78.1 155.5 78.5 156.2 78.6C156.8 78.7 157.6 78.4 157.9 77.5C164.6 56.8 166.8 42.4 164 38.1C163.5 37.4 162.9 37 162.1 36.9C162 36.9 161.9 36.9 161.8 36.9Z" fill="#D1E4BE"/>
<path d="M189.5 512C189.2 512.3 188.9 512.5 188.5 512.7C186.6 513.6 184.5 513.1 183.3 511.5C173 498 161.2 480 162.9 471.3C163.3 469.3 164.3 467.9 165.8 466.9C167.4 466 169.1 465.8 170.8 466.5C178.5 469.6 185.9 490.7 190.7 507.8C191.1 509.4 190.6 511 189.5 512ZM166.6 469.5C166 470 165.6 470.8 165.4 471.7C164.2 477.8 171.3 491.3 185.3 509.8C185.9 510.6 186.7 510.6 187.3 510.3C187.9 510 188.4 509.4 188.1 508.4C181.6 485.3 175 470.9 169.8 468.8C168.9 468.4 168 468.5 167.1 469C167 469.2 166.8 469.4 166.6 469.5Z" fill="#82368C"/>
<path d="M164.4 498.5C167 500.3 165.3 504.3 162.2 503.7C148.1 501.1 125.2 495.4 122.7 485.7C118.5 470.2 148.6 487.4 164.4 498.5Z" fill="#82368C"/>
<path d="M155.7 480.5C155.5 480.6 155.4 480.8 155.2 480.9C153.5 482.1 151.2 481.8 149.8 480.3C133.9 463.6 126.2 451.9 126.8 445.5C127 443.8 127.7 442.4 129 441.5C130.3 440.6 131.9 440.3 133.5 440.7C139.4 442.3 147.3 454.1 156.8 475.7C157.5 477.3 157 479.3 155.7 480.5ZM130.3 443.7C129.7 444.2 129.5 444.8 129.4 445.7C128.9 451.1 136.8 462.7 151.7 478.4C152.4 479.1 153.2 479 153.8 478.6C154.3 478.2 154.8 477.5 154.4 476.6C145.6 456.7 137.8 444.4 132.9 443.1C132 442.9 131.3 443 130.7 443.5C130.5 443.6 130.4 443.7 130.3 443.7Z" fill="#82368C"/>
<path d="M869.1 436.6C868.8 436.4 868.4 436.2 868.1 435.9C866.5 434.5 866.2 432.4 867.3 430.6C875.9 416 888 398.3 896.8 396.5C898.7 396.1 900.5 396.5 902 397.6C903.5 398.7 904.3 400.2 904.3 402C904.4 410.3 887.7 425.1 873.6 436.1C872.2 437.2 870.5 437.3 869.1 436.6ZM899.8 399.4C899.1 399 898.2 399 897.3 399.1C891.2 400.3 881.4 412 869.6 432C869.1 432.8 869.4 433.6 869.9 434C870.4 434.4 871.2 434.7 871.9 434.1C890.8 419.4 901.7 407.7 901.6 402.1C901.6 401.1 901.2 400.3 900.4 399.7C900.2 399.6 900 399.5 899.8 399.4Z" fill="#FBBD2E"/>
<path d="M872.1 408.3C871.4 411.4 867 411.3 866.4 408.3C863.5 394.3 860.1 370.9 868.1 364.9C880.9 355.1 876.4 389.5 872.1 408.3Z" fill="#FBBD2E"/>
<path d="M885.5 393.4C885.3 393.3 885.1 393.2 885 393.1C883.3 391.9 882.7 389.8 883.5 387.9C893 366.9 900.8 355.3 906.9 353.4C908.6 352.9 910.1 353.1 911.5 353.9C912.9 354.8 913.7 356.1 913.9 357.7C914.7 363.8 906.7 375.5 890.4 392.5C889.1 393.9 887.1 394.2 885.5 393.4ZM909.9 356C909.2 355.7 908.5 355.6 907.7 355.9C902.5 357.5 894.8 369.2 885.9 389C885.5 389.9 885.9 390.6 886.5 391C887 391.4 887.9 391.5 888.6 390.8C903.7 375.1 912.1 363.2 911.4 358.2C911.3 357.3 910.9 356.7 910.2 356.3C910.1 356.1 910 356.1 909.9 356Z" fill="#FBBD2E"/>
<path d="M585.2 46C585.4 46.2 585.6 46.6 585.5 47C585.4 47.6 584.8 48 584.2 48C574.1 46.6 565.4 50 560.7 57.2C556.7 63.4 556.7 71.1 560.6 77.3C564.7 83.7 572.1 86.9 579.5 85.4C586.1 84.1 590.8 79.3 591.9 72.9C592.9 67 590.6 62.2 585.7 60.2C580.6 58.1 574.5 59.7 571.6 63.9C569.6 66.7 571.1 69.5 573.1 71.2C575.1 72.9 578.1 73.7 579.6 72.2C580 71.8 580.8 71.8 581.2 72.2C581.6 72.6 581.6 73.4 581.2 73.8C578.7 76.3 574.4 75.2 571.7 72.9C569.1 70.7 567 66.7 569.8 62.6C573.3 57.6 580.5 55.6 586.6 58.1C592.5 60.5 595.4 66.2 594.2 73.2C593 80.5 587.6 86 580 87.5C571.7 89.2 563.3 85.6 558.7 78.4C554.3 71.4 554.3 62.8 558.8 55.9C563.9 47.9 573.5 44.1 584.5 45.7C584.8 45.7 585 45.8 585.2 46Z" fill="#93CEBE"/>
<path d="M572.4 110.9C572.4 115.1 569 118.5 564.8 118.5C560.6 118.5 557.2 115.1 557.2 110.9C557.2 106.7 560.6 103.3 564.8 103.3C569 103.3 572.4 106.7 572.4 110.9Z" fill="#FACAB4"/>
<path d="M57.4 207.6C57.4 211.8 54 215.2 49.8 215.2C45.6 215.2 42.2 211.8 42.2 207.6C42.2 203.4 45.6 200 49.8 200C54 200 57.4 203.4 57.4 207.6Z" fill="#E94259"/>
<path d="M15.3 45.3C15.3 49.5 11.9 52.9 7.7 52.9C3.4 53 0 49.5 0 45.3C0 41.1 3.4 37.7 7.6 37.7C11.8 37.7 15.3 41.1 15.3 45.3Z" fill="#5FB130"/>
<path d="M249.1 633.7C249.1 637.9 245.7 641.3 241.5 641.3C237.3 641.3 233.9 637.9 233.9 633.7C233.9 629.5 237.3 626.1 241.5 626.1C245.7 626 249.1 629.4 249.1 633.7Z" fill="#5FB130"/>
<path d="M49.8 633.7C49.8 637.9 46.4 641.3 42.2 641.3C38 641.3 34.6 637.9 34.6 633.7C34.6 629.5 38 626.1 42.2 626.1C46.4 626 49.8 629.4 49.8 633.7Z" fill="#FBBD2E"/>
<path d="M863.1 572.8C863.1 577 859.7 580.4 855.5 580.4C851.3 580.4 847.9 577 847.9 572.8C847.9 568.6 851.3 565.2 855.5 565.2C859.7 565.2 863.1 568.6 863.1 572.8Z" fill="#FACAB4"/>
<path d="M827.3 81.9C827.3 86.1 823.9 89.5 819.7 89.5C815.5 89.5 812.1 86.1 812.1 81.9C812.1 77.7 815.5 74.3 819.7 74.3C823.9 74.3 827.3 77.7 827.3 81.9Z" fill="#009DDC"/>
<path d="M1055 393.9C1055 398.1 1051.6 401.5 1047.4 401.5C1043.2 401.5 1039.8 398.1 1039.8 393.9C1039.8 389.7 1043.2 386.3 1047.4 386.3C1051.6 386.2 1055 389.6 1055 393.9Z" fill="#009DDC"/>
<path d="M372.3 578.2C369.4 564.1 378.5 550.2 392.6 547.2C406.7 544.3 420.6 553.4 423.6 567.5C426.5 581.6 417.4 595.5 403.3 598.5C389.2 601.5 375.3 592.3 372.3 578.2ZM420.3 568.2C417.7 555.9 405.6 547.9 393.3 550.5C381 553.1 373 565.2 375.6 577.5C378.2 589.8 390.3 597.8 402.6 595.2C415 592.6 422.9 580.5 420.3 568.2Z" fill="#F39EA3"/>
<path d="M411.4 571.4C401.8 573.4 392.4 567.2 390.4 557.6C388.4 548 394.6 538.6 404.2 536.6C413.8 534.6 423.2 540.8 425.2 550.4C427.2 559.9 421 569.4 411.4 571.4Z" fill="#F39EA3"/>
<path d="M8.19999 427.3C5.29999 413.2 14.4 399.3 28.5 396.3C42.6 393.4 56.5 402.5 59.5 416.6C62.4 430.7 53.3 444.6 39.2 447.6C25 450.6 11.1 441.5 8.19999 427.3ZM56.2 417.3C53.6 405 41.5 397 29.2 399.6C16.9 402.2 8.89999 414.3 11.5 426.6C14.1 438.9 26.2 446.9 38.5 444.3C50.8 441.8 58.8 429.7 56.2 417.3Z" fill="#E94259"/>
<path d="M47.3 420.5C37.7 422.5 28.3 416.3 26.3 406.7C24.3 397.1 30.5 387.7 40.1 385.7C49.7 383.7 59.1 389.9 61.1 399.5C63.1 409.1 56.9 418.5 47.3 420.5Z" fill="#E94259"/>
<path d="M986.3 109C970.7 109 958.1 96.3 958.1 80.8C958.1 65.2 970.8 52.6 986.3 52.6C1001.9 52.6 1014.5 65.3 1014.5 80.8C1014.5 96.3 1001.8 109 986.3 109ZM986.3 56.1C972.7 56.1 961.7 67.1 961.7 80.7C961.7 94.3 972.7 105.3 986.3 105.3C999.9 105.3 1010.9 94.3 1010.9 80.7C1010.9 67.2 999.9 56.1 986.3 56.1Z" fill="#D1E4BE"/>
<path d="M1030.2 37C1039.7 37 1047.4 44.7 1047.4 54.2C1047.4 63.7 1039.7 71.4 1030.2 71.4C1020.7 71.4 1013 63.7 1013 54.2C1013 44.7 1020.7 37 1030.2 37Z" fill="#93CEBE"/>
<path d="M971.8 79.4C982.4 79.4 991 88 991 98.6C991 109.2 982.4 117.8 971.8 117.8C961.2 117.8 952.6 109.2 952.6 98.6C952.6 87.9 961.2 79.4 971.8 79.4Z" fill="#D1E4BE"/>
</g>
<defs>
<clipPath id="clip0_44_3">
<rect width="1055" height="716.2" fill="white"/>
</clipPath>
</defs>
</svg>
