<svg width="395" height="182" viewBox="0 0 395 182" fill="none" xmlns="http://www.w3.org/2000/svg">
<path d="M107.314 151.45C107.314 151.45 96.0138 183.85 85.4138 179.95C74.8138 176.05 70.5138 162.65 70.5138 162.65C70.5138 162.65 106.914 149.35 107.314 151.45Z" fill="#5FB130"/>
<path d="M105.114 56.7503C104.614 54.7503 103.114 53.8503 101.814 54.6503C99.1138 56.3503 95.4138 60.4503 95.1138 69.9503C94.5138 84.7503 117.814 104.35 133.014 92.9503C148.214 81.4503 144.714 70.3503 138.014 69.9503C131.414 69.5503 110.714 80.1503 105.114 56.7503Z" fill="#5FB130"/>
<path d="M137.714 70.8504C137.714 70.8504 135.214 63.6504 138.614 64.3504C142.014 65.0504 141.314 72.8504 141.314 72.8504C141.314 72.8504 142.814 63.8504 146.914 68.7504C151.114 73.5504 143.614 76.5504 142.914 76.6504C142.214 76.7504 149.814 74.8504 150.814 78.7504C151.714 82.7504 145.214 87.3504 141.514 80.5504" fill="#5FB130"/>
<path d="M97.0138 38.9504C97.3138 38.6504 115.414 31.9504 109.014 24.4504C102.614 16.9504 99.1138 7.65037 91.7138 9.55037C84.3138 11.4504 98.2138 19.2504 91.7138 24.1504C85.2138 29.0504 79.3138 25.7504 76.8138 30.7504C74.3138 35.7504 92.9138 42.9504 97.0138 38.9504Z" fill="#F9AF14"/>
<path d="M97.0138 38.9505C97.0138 38.9505 83.9138 31.3505 82.5138 27.4505C77.9138 27.1505 75.8138 30.6505 76.9138 32.8505C78.0138 35.0505 84.5138 40.1505 91.3138 40.0505C95.3138 40.6505 97.0138 38.9505 97.0138 38.9505Z" fill="#D66C12"/>
<path d="M92.3138 23.5503C92.3138 23.5503 89.9138 25.8503 86.8138 26.5503C83.7138 27.2503 100.314 37.4503 101.514 36.7503C102.714 36.0503 106.314 33.7503 106.314 33.7503C106.314 33.7503 96.9138 30.5503 92.3138 23.5503Z" fill="#D66C12"/>
<path d="M107.014 22.0504C107.014 22.0504 94.5138 18.9503 92.5138 17.8503C92.6138 18.4503 93.3138 18.9503 93.4138 21.3503C93.4138 25.7503 108.714 31.5504 109.114 31.0504C109.414 30.4504 112.714 26.5504 107.014 22.0504Z" fill="#D66C12"/>
<path d="M103.214 16.6503C103.214 16.6503 91.5138 15.3502 90.5138 14.2502C89.4138 13.0502 88.7138 10.6503 90.7138 9.95026C92.7138 9.25026 94.2138 8.95025 97.1138 10.3503C100.014 11.6503 103.214 16.6503 103.214 16.6503Z" fill="#D66C12"/>
<path d="M6.4137 64.6505V142.75C6.4137 148.45 10.0137 153.55 15.5137 155.45C33.9137 161.85 76.4137 173.05 106.514 151.95C122.314 140.85 127.914 128.25 126.414 111.55C124.214 86.6504 110.214 63.4504 110.214 63.4504" fill="#8AC926"/>
<path d="M53.8137 23.3503C53.8137 23.3503 9.31374 30.5503 6.01374 62.5503C2.71374 94.4503 54.9137 122.35 90.5137 100.45C126.114 78.5503 113.814 20.3503 53.8137 23.3503Z" fill="#8AC926"/>
<path d="M68.6137 30.2502C68.6137 30.2502 43.1137 34.4502 41.2137 52.8502C39.3137 71.2502 69.2137 87.3502 89.6137 74.7502C110.014 62.1502 103.014 28.5502 68.6137 30.2502Z" fill="white"/>
<path d="M74.6137 35.0504C74.6137 35.0504 58.7137 37.6504 57.5137 49.1504C56.3137 60.6504 75.0137 70.6503 87.7137 62.7503C100.414 54.8503 96.0137 33.9504 74.6137 35.0504Z" fill="#1CA5B7"/>
<path d="M37.2137 78.4504L35.8137 86.2504L42.2137 84.2504" fill="#FCF7CC"/>
<path d="M46.9138 87.3503L49.5138 95.4503L53.6138 89.3503L46.9138 87.3503Z" fill="#FCF7CC"/>
<path d="M59.3137 89.5505L64.7137 97.6505L65.5137 87.7505L59.3137 89.5505Z" fill="#FCF7CC"/>
<path d="M31.6138 62.6504C31.6138 62.6504 31.9138 63.4504 32.4138 64.8504C32.7138 65.5504 33.0138 66.3504 33.4138 67.3504C33.8138 68.3504 34.3138 69.3504 34.8138 70.5504C35.4138 71.6504 36.0138 72.8504 36.7138 74.1504C37.4138 75.3504 38.2138 76.6504 39.1138 77.8504C40.0138 79.0504 41.0138 80.2504 42.1138 81.4504C42.7138 81.9504 43.2138 82.5504 43.9138 83.0504L44.8138 83.7504L45.8138 84.4504C46.1138 84.6504 46.5138 84.8504 46.8138 85.0504C47.1138 85.2504 47.5138 85.4504 47.8138 85.6504C48.5138 85.9504 49.2138 86.3504 49.9138 86.5504C50.3138 86.6504 50.6138 86.8504 51.0138 86.9504C51.4138 87.0504 51.7138 87.1504 52.1138 87.2504C52.8138 87.4504 53.6138 87.5504 54.3138 87.6504C55.8138 87.8504 57.3138 87.9504 58.7138 87.8504C59.4138 87.8504 60.1138 87.7504 60.8138 87.7504C61.5138 87.6504 62.1138 87.6504 62.7138 87.5504C63.9138 87.3504 65.1138 87.1504 66.1138 86.9504C67.1138 86.7504 68.0138 86.5504 68.7138 86.3504C70.1138 85.9504 71.0138 85.7504 71.0138 85.7504C71.0138 85.7504 70.3138 86.2504 68.9138 86.9504C68.2138 87.3504 67.4138 87.7504 66.4138 88.1504C65.9138 88.3504 65.4138 88.6504 64.8138 88.8504C64.2138 89.0504 63.6138 89.2504 63.0138 89.4504C62.4138 89.6504 61.7138 89.8504 61.0138 89.9504C60.3138 90.1504 59.6138 90.2504 58.8138 90.3504C57.3138 90.5504 55.6138 90.6504 53.9138 90.5504C53.0138 90.4504 52.2138 90.4504 51.3138 90.2504C50.9138 90.1504 50.4138 90.0504 50.0138 89.9504C49.6138 89.8504 49.1138 89.6504 48.7138 89.5504C47.8138 89.3504 47.0138 88.8504 46.2138 88.5504C45.8138 88.3504 45.4138 88.1504 45.0138 87.8504C44.6138 87.6504 44.2138 87.4504 43.8138 87.1504C42.2138 86.1504 40.9138 84.8504 39.7138 83.6504C38.5138 82.3504 37.4138 80.9504 36.6138 79.4504C35.7138 78.0504 35.0138 76.5504 34.4138 75.1504C33.8138 73.7504 33.3138 72.4504 33.0138 71.1504C32.3138 68.6504 31.9138 66.4504 31.7138 64.9504C31.6138 63.5504 31.6138 62.6504 31.6138 62.6504Z" fill="#5FB130"/>
<path d="M74.9137 39.2504C74.9137 39.2504 62.7137 41.2504 61.8137 50.0504C60.9137 58.8504 75.2137 66.5504 85.0137 60.5504C94.8137 54.4504 91.4137 38.3504 74.9137 39.2504Z" fill="#026572"/>
<path d="M75.2137 41.0503C75.2137 41.0503 65.8137 42.5503 65.1137 49.3503C64.4137 56.1503 75.4137 62.0503 82.9137 57.4503C90.5137 52.8503 87.9137 40.4503 75.2137 41.0503Z" fill="black"/>
<path d="M82.6138 48.3503C85.0991 48.3503 87.1138 46.3356 87.1138 43.8503C87.1138 41.3651 85.0991 39.3503 82.6138 39.3503C80.1285 39.3503 78.1138 41.3651 78.1138 43.8503C78.1138 46.3356 80.1285 48.3503 82.6138 48.3503Z" fill="white"/>
<path d="M78.3138 54.9503C79.5288 54.9503 80.5138 53.9653 80.5138 52.7503C80.5138 51.5352 79.5288 50.5503 78.3138 50.5503C77.0987 50.5503 76.1138 51.5352 76.1138 52.7503C76.1138 53.9653 77.0987 54.9503 78.3138 54.9503Z" fill="white"/>
<path d="M114.614 97.1503C113.714 94.4503 110.514 93.4503 108.314 95.1503C100.514 100.95 84.2137 111.95 74.0137 111.25C60.1137 110.35 49.3137 153.15 60.8137 157.45C70.6137 161.05 133.514 154.95 114.614 97.1503Z" fill="#FBF4AE"/>
<path d="M114.514 97.1504C114.514 97.1504 114.414 96.3503 113.314 95.3503C112.814 94.8503 111.914 94.4503 110.914 94.3503C110.414 94.3503 109.814 94.3504 109.214 94.6504C108.614 94.8504 108.114 95.2504 107.614 95.6504C105.414 97.2504 102.714 99.2503 99.5137 101.35C96.3137 103.45 92.6137 105.75 88.3137 107.75C87.2137 108.25 86.1137 108.75 85.0137 109.25C83.8137 109.65 82.7137 110.15 81.4137 110.45C79.0137 111.15 76.2137 111.65 73.5137 111.45C72.2137 111.45 70.9137 111.85 69.8137 112.55C68.6137 113.25 67.6137 114.15 66.6137 115.15C64.7137 117.15 63.2137 119.65 61.8137 122.25C59.2137 127.55 57.4137 133.45 56.5137 139.55C56.1137 142.65 55.9137 145.75 56.3137 148.85C56.5137 150.35 56.8137 151.95 57.4137 153.35C58.0137 154.75 58.9137 156.05 60.3137 156.75C60.6137 156.95 61.0137 157.05 61.4137 157.15L62.0137 157.35L62.6137 157.45C63.3137 157.65 64.1137 157.65 64.9137 157.75C66.5137 157.85 68.0137 157.85 69.6137 157.85C72.7137 157.75 75.8137 157.35 78.8137 156.75C84.9137 155.65 90.7137 153.75 95.9137 151.15C97.2137 150.45 98.5137 149.75 99.7137 149.05C100.914 148.35 102.114 147.45 103.214 146.65C105.414 144.95 107.514 143.15 109.214 141.05C112.714 137.05 115.114 132.45 116.414 127.95C117.714 123.45 118.014 119.05 117.914 115.25C117.914 114.25 117.814 113.35 117.814 112.45C117.814 111.55 117.614 110.75 117.514 109.85C117.414 109.05 117.314 108.25 117.214 107.45C117.114 106.75 116.914 105.95 116.814 105.35C116.514 104.05 116.314 102.75 116.014 101.75C115.714 100.75 115.514 99.8504 115.314 99.1504C114.814 97.9504 114.514 97.1504 114.514 97.1504ZM114.614 97.1504C114.614 97.1504 114.814 97.9503 115.214 99.3503C115.414 100.05 115.714 100.95 116.014 101.95C116.314 102.95 116.514 104.15 116.814 105.55C116.914 106.25 117.114 106.95 117.314 107.65C117.414 108.45 117.514 109.15 117.714 110.05C117.814 110.85 118.014 111.75 118.014 112.65C118.114 113.55 118.114 114.45 118.214 115.45C118.314 119.25 118.214 123.65 117.014 128.35C115.814 132.95 113.414 137.75 109.814 141.85C108.114 143.95 105.914 145.85 103.714 147.55C101.414 149.25 98.9137 150.85 96.2137 152.15C90.9137 154.75 85.0137 156.65 78.8137 157.75C75.7137 158.25 72.6137 158.55 69.5137 158.65C67.9137 158.65 66.3137 158.65 64.8137 158.55C64.0137 158.45 63.2137 158.35 62.4137 158.25L61.8137 158.15L61.2137 157.95C60.8137 157.85 60.4137 157.65 60.1137 157.55C58.6137 156.75 57.7137 155.35 57.1137 153.85C56.5137 152.35 56.2137 150.75 56.0137 149.25C55.7137 146.15 55.9137 142.95 56.3137 139.85C57.2137 133.75 58.9137 127.75 61.4137 122.45C62.7137 119.75 64.2137 117.25 66.1137 115.05C67.1137 113.95 68.1137 113.05 69.4137 112.25C70.6137 111.55 72.0137 111.05 73.5137 111.05C74.2137 111.05 74.8137 111.05 75.5137 111.05C75.8137 111.05 76.1137 111.05 76.5137 110.95L77.5137 110.85C78.1137 110.75 78.8137 110.65 79.4137 110.45C79.7137 110.35 80.0137 110.35 80.3137 110.25L81.2137 109.95C82.4137 109.65 83.6137 109.15 84.7137 108.75C85.8137 108.25 86.9137 107.85 88.0137 107.35C92.3137 105.35 96.0137 103.25 99.3137 101.25C102.514 99.2503 105.314 97.3503 107.514 95.7503C108.114 95.3503 108.614 94.9503 109.214 94.7503C109.814 94.5503 110.414 94.4503 110.914 94.4503C112.014 94.5503 112.914 94.9503 113.414 95.4503C114.014 95.9503 114.314 96.4503 114.414 96.7503C114.614 96.9503 114.614 97.1504 114.614 97.1504Z" fill="#75C149"/>
<path d="M11.9137 151.45C11.9137 151.45 24.4137 183.85 36.1137 179.95C47.8137 176.15 52.5137 162.65 52.5137 162.65C52.5137 162.65 12.4137 149.35 11.9137 151.45Z" fill="#8AC926"/>
<path d="M93.8137 141.45C93.8137 141.45 93.7137 133.65 99.4137 135.25C105.114 136.85 102.014 140.55 102.014 140.55C102.014 140.55 100.714 136.45 98.3137 138.25C96.0137 139.95 93.8137 141.45 93.8137 141.45Z" fill="#F9AF14"/>
<path d="M27.5138 66.5502C27.5138 66.5502 20.3138 61.9502 27.8138 60.4502C35.4138 58.9502 38.0138 56.9502 38.7138 61.4502C39.4138 65.9502 38.3138 66.1502 36.8138 66.0502C35.2138 65.9502 34.6138 57.6502 27.5138 66.5502Z" fill="#5FB130"/>
<path d="M13.6137 44.0503C10.4137 46.7503 -1.58625 61.9503 5.81375 135.05C5.21375 152.45 13.1137 154.35 13.1137 154.35C13.1137 154.35 14.2137 98.5503 13.7137 86.2503C13.2137 71.8503 26.1137 36.0503 26.1137 36.0503C26.1137 36.0503 19.2137 36.5503 15.0138 42.3503C14.7137 42.9503 14.2137 43.5503 13.6137 44.0503Z" fill="#75C149"/>
<path d="M14.8137 93.8504C14.1137 91.8504 11.8137 90.9504 9.91374 91.7504C6.01374 93.4504 0.513746 97.5504 0.0137457 107.05C-0.786254 121.85 33.5137 141.45 55.8137 130.05C78.1137 118.55 73.1137 107.45 63.1137 107.05C53.6137 106.65 23.1137 117.25 14.8137 93.8504Z" fill="#5FB130"/>
<path d="M62.8138 107.85C62.8138 107.85 59.2138 100.65 64.2138 101.35C69.2138 102.05 68.2138 109.85 68.2138 109.85C68.2138 109.85 70.4138 100.85 76.5138 105.75C82.6138 110.55 71.6138 113.55 70.6138 113.65C69.6138 113.75 80.8138 111.85 82.2138 115.75C83.6138 119.75 73.9138 124.35 68.6138 117.55" fill="#5FB130"/>
<path d="M33.5399 49.8717C35.5503 49.2689 36.8971 47.8368 36.5481 46.6729C36.1991 45.5091 34.2866 45.0542 32.2762 45.6569C30.2659 46.2597 28.9191 47.6918 29.2681 48.8557C29.617 50.0195 31.5296 50.4744 33.5399 49.8717Z" fill="#5FB130"/>
<path d="M27.4064 57.311C29.4167 56.7082 30.5964 54.7186 30.0412 52.867C29.4861 51.0153 27.4063 50.0029 25.396 50.6057C23.3857 51.2084 22.206 53.1981 22.7612 55.0497C23.3163 56.9013 25.3961 57.9137 27.4064 57.311Z" fill="#5FB130"/>
<path d="M34.1842 56.4707C35.5597 56.0583 36.379 54.7375 36.0142 53.5208C35.6494 52.304 34.2386 51.6519 32.8631 52.0643C31.4876 52.4767 30.6683 53.7974 31.0331 55.0142C31.3979 56.231 32.8087 56.8831 34.1842 56.4707Z" fill="#5FB130"/>
<path d="M16.8137 38.6503C16.5137 38.3503 -1.58629 31.6503 4.81371 24.1503C11.2137 16.6503 14.7137 7.35032 22.1137 9.25032C29.5137 11.1503 15.6137 18.9503 22.1137 23.8503C28.6137 28.7503 34.5137 25.4503 37.0137 30.4503C39.5137 35.4503 20.9137 42.6503 16.8137 38.6503Z" fill="#F9AF14"/>
<path d="M16.8137 38.6504C16.8137 38.6504 29.9137 31.0504 31.3137 27.1504C35.9137 26.8504 38.0137 30.3504 36.9137 32.5504C35.8137 34.7504 29.3137 39.8504 22.5137 39.7504C18.4137 40.3504 16.8137 38.6504 16.8137 38.6504Z" fill="#D66C12"/>
<path d="M21.5137 23.2502C21.5137 23.2502 23.9137 25.5502 27.0137 26.2502C30.1137 26.9502 13.5137 37.1503 12.3137 36.4503C11.1137 35.7503 7.51367 33.4503 7.51367 33.4503C7.51367 33.4503 16.9137 30.2502 21.5137 23.2502Z" fill="#D66C12"/>
<path d="M6.81376 21.7503C6.81376 21.7503 19.3138 18.6503 21.3138 17.5503C21.2138 18.1503 20.5138 18.6503 20.4138 21.0503C20.4138 25.4503 5.11376 31.2503 4.71376 30.7503C4.31376 30.1503 1.11376 26.1503 6.81376 21.7503Z" fill="#D66C12"/>
<path d="M10.6138 16.3504C10.6138 16.3504 22.3138 15.0504 23.3138 13.9504C24.3138 12.8504 25.1138 10.3505 23.1138 9.65045C21.1138 8.95045 19.6138 8.65045 16.7138 10.0504C13.8138 11.3504 10.6138 16.3504 10.6138 16.3504Z" fill="#D66C12"/>
<path d="M42.2137 161.55C42.2137 161.55 42.5137 161.55 43.1137 161.65C43.7137 161.75 44.5137 161.85 45.6137 161.95C47.7137 162.15 50.8137 162.45 54.4137 162.55C56.2137 162.65 58.2137 162.65 60.3137 162.65C62.4137 162.65 64.6138 162.55 66.9137 162.45C69.2137 162.35 71.5138 162.05 73.9137 161.85C76.3138 161.55 78.6137 161.25 81.0137 160.75L82.8137 160.45L84.6137 160.05C85.8137 159.75 86.9137 159.45 88.1137 159.15C88.7137 159.05 89.2137 158.85 89.8137 158.65C90.4137 158.45 90.9137 158.35 91.5137 158.15C92.6137 157.75 93.7137 157.35 94.7137 156.95C95.7137 156.55 96.8137 156.05 97.8137 155.65C98.8137 155.25 99.7138 154.75 100.714 154.35C102.514 153.35 104.314 152.45 105.814 151.55C106.214 151.35 106.614 151.05 106.914 150.85C107.314 150.65 107.614 150.35 108.014 150.15C108.714 149.65 109.414 149.25 110.014 148.85C111.214 147.95 112.314 147.25 113.114 146.55C114.814 145.15 115.714 144.45 115.714 144.45C115.714 144.45 114.914 145.45 113.514 147.05C112.814 147.85 111.814 148.75 110.714 149.85C110.114 150.35 109.514 150.85 108.914 151.45C108.614 151.75 108.214 152.05 107.914 152.35C107.514 152.65 107.214 152.85 106.814 153.15C106.014 153.65 105.314 154.35 104.414 154.85C103.614 155.35 102.714 155.95 101.814 156.55C100.914 157.05 99.9137 157.65 98.9137 158.15C97.9137 158.65 96.8137 159.15 95.8137 159.65C93.6137 160.55 91.4137 161.45 89.0137 162.15C87.8137 162.45 86.6138 162.85 85.4137 163.15L83.6137 163.65L81.8137 164.05C79.3137 164.55 76.9137 164.85 74.4137 165.15C71.9137 165.35 69.5137 165.45 67.2137 165.45C64.9137 165.45 62.6137 165.35 60.5137 165.25C58.4137 165.05 56.4137 164.85 54.5137 164.55C52.7137 164.25 51.0137 163.95 49.5137 163.65C48.0137 163.35 46.7137 163.05 45.7137 162.75C44.7137 162.45 43.8137 162.15 43.3137 162.05C42.4137 161.65 42.2137 161.55 42.2137 161.55Z" fill="#5FB130"/>
<path d="M49.3137 72.0504C49.3137 72.0504 74.4137 82.7503 99.4137 67.8503C92.8137 78.8503 64.1137 87.0504 49.3137 72.0504Z" fill="#5FB130"/>
<path d="M233.51 151.201C233.51 151.201 222.01 184.101 211.21 180.201C200.41 176.301 196.11 162.601 196.11 162.601C196.11 162.601 233.11 149.101 233.51 151.201Z" fill="#F6A117"/>
<path d="M231.21 55.1013C230.71 53.1013 229.11 52.1013 227.81 53.0013C225.11 54.8013 221.31 58.9013 221.01 68.5013C220.41 83.5013 244.11 103.401 259.41 91.8013C274.71 80.2013 271.31 68.8013 264.51 68.5013C258.01 68.1013 236.91 78.9013 231.21 55.1013Z" fill="#F6A117"/>
<path d="M264.31 69.4012C264.31 69.4012 261.81 62.1012 265.31 62.8012C268.81 63.5012 268.01 71.4012 268.01 71.4012C268.01 71.4012 269.51 62.3012 273.71 67.2012C277.91 72.1012 270.31 75.1012 269.71 75.2012C269.01 75.3012 276.71 73.4012 277.71 77.4012C278.61 81.4012 272.01 86.1012 268.31 79.2012" fill="#F6A117"/>
<path d="M132.21 63.1014V142.401C132.21 148.201 135.91 153.401 141.41 155.301C160.11 161.801 203.31 173.101 233.81 151.701C249.91 140.401 255.51 127.601 254.01 110.701C251.71 85.4014 237.61 61.9014 237.61 61.9014" fill="#FEC93C"/>
<path d="M180.31 21.0013C180.31 21.0013 135.21 28.3013 131.81 60.8013C128.41 93.2013 181.41 121.501 217.61 99.3013C253.81 77.1013 241.21 17.9013 180.31 21.0013Z" fill="#FEC93C"/>
<path d="M240.91 96.1014C240.01 93.4014 236.81 92.3014 234.51 94.0014C226.61 99.8014 210.01 111.001 199.61 110.401C185.61 109.501 174.61 153.001 186.31 157.301C196.31 161.001 260.01 154.801 240.91 96.1014Z" fill="#A2D9F2"/>
<path d="M137.81 151.301C137.81 151.301 150.51 184.201 162.31 180.301C174.11 176.401 179.01 162.701 179.01 162.701C179.01 162.701 138.21 149.101 137.81 151.301Z" fill="#FEC93C"/>
<path d="M219.81 141.101C219.81 141.101 219.71 133.201 225.51 134.801C231.41 136.401 228.11 140.201 228.11 140.201C228.11 140.201 226.81 136.001 224.41 137.801C222.01 139.601 219.81 141.101 219.81 141.101Z" fill="#2B4E9D"/>
<path d="M138.31 42.2012C135.01 45.0012 122.91 60.4012 130.41 134.601C129.71 152.401 137.81 154.301 137.81 154.301C137.81 154.301 138.91 97.6012 138.41 85.1012C137.91 70.5012 151.01 34.2012 151.01 34.2012C151.01 34.2012 144.01 34.7012 139.81 40.6012C139.41 41.1012 138.91 41.7012 138.31 42.2012Z" fill="#FAB512"/>
<path d="M167.31 161.501C173.91 162.501 180.51 163.001 187.11 162.901C193.71 162.901 200.31 162.301 206.71 161.001C208.31 160.701 209.91 160.301 211.51 159.901C213.11 159.501 214.71 159.001 216.21 158.501C217.81 158.001 219.31 157.401 220.81 156.901C222.31 156.201 223.81 155.701 225.31 154.901C231.21 152.101 236.71 148.301 241.71 144.001C237.41 149.101 232.11 153.501 226.21 156.701C224.71 157.601 223.21 158.201 221.71 159.001C220.11 159.601 218.61 160.301 217.01 160.901C213.81 162.001 210.51 162.901 207.21 163.501C203.91 164.101 200.51 164.601 197.21 164.801C193.81 165.001 190.51 165.001 187.11 164.901C180.41 164.601 173.71 163.601 167.31 161.501Z" fill="#F9AF14"/>
<path d="M170.61 32.5013C170.61 32.5013 154.51 35.1013 153.31 46.8013C152.11 58.5013 171.01 68.6013 183.91 60.7013C196.81 52.8013 192.31 31.4013 170.61 32.5013Z" fill="white"/>
<path d="M174.47 40.0199C174.47 40.0199 164.47 41.6199 163.67 48.9199C162.87 56.2199 174.67 62.5199 182.77 57.5199C190.87 52.5199 188.07 39.4199 174.47 40.0199Z" fill="#1CA5B7"/>
<path d="M174.67 42.7197C174.67 42.7197 166.97 44.0197 166.37 49.5197C165.77 55.0197 174.87 60.0197 181.07 56.1197C187.27 52.2197 185.17 42.1197 174.67 42.7197Z" fill="#026572"/>
<path d="M174.87 43.9199C174.87 43.9199 168.97 44.9199 168.47 49.2199C167.97 53.5199 174.97 57.2199 179.77 54.3199C184.57 51.3199 182.87 43.5199 174.87 43.9199Z" fill="black"/>
<path d="M179.57 48.5197C181.171 48.5197 182.47 47.2214 182.47 45.6197C182.47 44.0181 181.171 42.7197 179.57 42.7197C177.968 42.7197 176.67 44.0181 176.67 45.6197C176.67 47.2214 177.968 48.5197 179.57 48.5197Z" fill="white"/>
<path d="M176.87 52.6198C177.643 52.6198 178.27 51.993 178.27 51.2198C178.27 50.4466 177.643 49.8198 176.87 49.8198C176.097 49.8198 175.47 50.4466 175.47 51.2198C175.47 51.993 176.097 52.6198 176.87 52.6198Z" fill="white"/>
<path d="M205.91 30.2012C205.91 30.2012 189.91 32.8012 188.71 44.4012C187.51 56.0012 206.31 66.1012 219.21 58.2012C232.11 50.3012 227.61 29.1012 205.91 30.2012Z" fill="white"/>
<path d="M211.361 38.0266C211.361 38.0266 201.361 39.6266 200.661 46.9266C199.961 54.1266 211.661 60.4266 219.661 55.5266C227.661 50.6266 224.761 37.3266 211.361 38.0266Z" fill="#1CA5B7"/>
<path d="M211.561 40.6268C211.561 40.6268 203.861 41.9268 203.261 47.4268C202.661 53.0268 211.661 57.8268 217.861 54.0268C224.061 50.2268 221.861 40.1268 211.561 40.6268Z" fill="#026572"/>
<path d="M211.661 41.8266C211.661 41.8266 205.761 42.8266 205.261 47.0266C204.761 51.2266 211.761 55.0266 216.461 52.1266C221.161 49.2266 219.661 41.4266 211.661 41.8266Z" fill="black"/>
<path d="M216.361 46.5268C217.963 46.5268 219.261 45.2284 219.261 43.6268C219.261 42.0252 217.963 40.7268 216.361 40.7268C214.759 40.7268 213.461 42.0252 213.461 43.6268C213.461 45.2284 214.759 46.5268 216.361 46.5268Z" fill="white"/>
<path d="M213.661 50.5268C214.434 50.5268 215.061 49.9 215.061 49.1268C215.061 48.3536 214.434 47.7268 213.661 47.7268C212.888 47.7268 212.261 48.3536 212.261 49.1268C212.261 49.9 212.888 50.5268 213.661 50.5268Z" fill="white"/>
<path d="M151.31 30.1013C151.31 30.1013 173.81 27.6013 187.31 22.9013C188.31 15.8013 173.61 0.201269 166.91 0.00126887C160.31 -0.198731 148.61 23.3013 151.31 30.1013Z" fill="#B45098"/>
<path d="M174.01 4.50122C174.01 4.50122 157.41 8.70122 156.91 9.10122C156.41 9.50122 154.11 12.6012 154.11 15.6012C154.11 18.6012 179.21 8.50122 179.21 8.50122C179.21 8.40122 177.31 4.70122 174.01 4.50122Z" fill="#9B1D7D"/>
<path d="M183.61 13.3012C183.61 13.3012 151.41 23.9012 151.61 22.7012C151.81 21.5012 148.81 28.0012 151.51 30.3012C154.21 32.6012 186.71 24.3012 187.71 23.0012C188.71 21.8012 186.91 17.4012 182.61 13.2012" fill="#9B1D7D"/>
<path d="M150.11 31.7012C149.91 31.6012 149.11 27.4012 145.01 24.4012C140.91 21.4012 148.91 20.5012 155.71 25.9012C162.51 31.3012 164.31 18.4012 164.31 18.4012C164.31 18.4012 170.71 26.3012 173.61 22.9012C176.51 19.5012 176.01 13.9012 181.41 12.9012C186.81 11.9012 177.21 17.3012 181.41 20.0012C185.61 22.8012 187.71 17.9012 188.61 12.8012C189.41 7.70124 195.31 21.6012 192.11 23.9012C188.91 26.2012 157.41 35.9012 150.11 31.7012Z" fill="#FBF4AE"/>
<path d="M154.468 65.7946C156.531 65.176 157.908 63.6881 157.543 62.4713C157.178 61.2545 155.21 60.7696 153.147 61.3882C151.084 62.0068 149.707 63.4947 150.072 64.7115C150.437 65.9283 152.405 66.4132 154.468 65.7946Z" fill="#F6A117"/>
<path d="M148.14 73.3625C150.203 72.7439 151.413 70.6985 150.842 68.794C150.271 66.8895 148.135 65.847 146.072 66.4656C144.009 67.0842 142.799 69.1296 143.37 71.0341C143.941 72.9387 146.077 73.9811 148.14 73.3625Z" fill="#F6A117"/>
<path d="M155.084 72.4003C156.46 71.9879 157.279 70.6672 156.914 69.4504C156.55 68.2337 155.139 67.5816 153.763 67.994C152.388 68.4064 151.568 69.7271 151.933 70.9439C152.298 72.1607 153.709 72.8127 155.084 72.4003Z" fill="#F6A117"/>
<path d="M228.48 62.0968C230.543 61.4782 231.92 59.9903 231.555 58.7736C231.19 57.5568 229.222 57.0719 227.159 57.6905C225.095 58.3091 223.719 59.7969 224.083 61.0137C224.448 62.2305 226.417 62.7154 228.48 62.0968Z" fill="#F6A117"/>
<path d="M222.152 69.6647C224.215 69.0461 225.425 67.0007 224.854 65.0962C224.283 63.1917 222.147 62.1493 220.084 62.7679C218.021 63.3865 216.811 65.4319 217.382 67.3364C217.953 69.2409 220.088 70.2833 222.152 69.6647Z" fill="#F6A117"/>
<path d="M229.067 68.6069C230.443 68.1945 231.262 66.8738 230.897 65.657C230.532 64.4402 229.122 63.7881 227.746 64.2005C226.371 64.613 225.551 65.9337 225.916 67.1504C226.281 68.3672 227.692 69.0193 229.067 68.6069Z" fill="#F6A117"/>
<path d="M170.91 80.1013L171.41 87.3013L176.61 84.1013" fill="#FCF7CC"/>
<path d="M181.41 85.8013L185.51 92.3013L187.71 86.0013L181.41 85.8013Z" fill="#FCF7CC"/>
<path d="M192.81 84.9012L199.41 90.8012L197.81 82.0012L192.81 84.9012Z" fill="#FCF7CC"/>
<path d="M162.51 67.6013C164.71 71.1013 167.31 74.3013 170.11 77.1013C172.91 79.9013 176.11 82.2013 179.71 83.5013C183.31 84.8013 187.21 85.0013 191.01 83.9013L192.41 83.6013L193.81 83.1013L196.61 82.0013C198.51 81.2013 200.21 80.1013 202.11 79.2013C200.61 80.6013 199.01 82.0013 197.31 83.3013L194.51 84.9013C194.01 85.2013 193.61 85.4013 193.11 85.7013L191.61 86.2013C187.61 87.9013 182.81 87.9013 178.61 86.4013C174.41 84.9013 170.91 82.1013 168.21 78.7013C165.71 75.3013 163.71 71.6013 162.51 67.6013Z" fill="#F6A117"/>
<path d="M256.216 152.45C256.216 152.45 267.516 184.85 278.116 180.95C288.716 177.05 293.016 163.65 293.016 163.65C293.016 163.65 256.616 150.35 256.216 152.45Z" fill="#6A4D94"/>
<path d="M256.467 80.6934C256.906 78.6792 258.378 77.7341 259.702 78.4943C262.452 80.1115 266.275 84.0973 266.863 93.5839C267.912 108.359 245.218 128.657 229.679 117.723C214.137 106.69 217.298 95.489 223.983 94.8858C230.568 94.2857 251.58 104.253 256.467 80.6934Z" fill="#6A4D94"/>
<path d="M224.31 95.7764C224.31 95.7764 226.59 88.5038 223.213 89.3067C219.836 90.1096 220.772 97.8847 220.772 97.8847C220.772 97.8847 219 88.9344 215.051 93.9566C210.998 98.8818 218.586 101.653 219.288 101.732C219.991 101.81 212.337 100.142 211.456 104.07C210.678 108.096 217.314 112.496 220.806 105.587" fill="#6A4D94"/>
<path d="M266.516 39.9504C266.216 39.6504 248.116 32.9504 254.516 25.4504C260.916 17.9504 264.416 8.65037 271.816 10.5504C279.216 12.4504 265.316 20.2504 271.816 25.1504C278.316 30.0504 284.216 26.7504 286.716 31.7504C289.216 36.7504 270.616 43.9504 266.516 39.9504Z" fill="#F9AF14"/>
<path d="M266.516 39.9505C266.516 39.9505 279.616 32.3505 281.016 28.4505C285.616 28.1505 287.716 31.6505 286.616 33.8505C285.516 36.0505 279.016 41.1505 272.216 41.0505C268.216 41.6505 266.516 39.9505 266.516 39.9505Z" fill="#D66C12"/>
<path d="M271.216 24.5503C271.216 24.5503 273.616 26.8503 276.716 27.5503C279.816 28.2503 263.216 38.4503 262.016 37.7503C260.816 37.0503 257.216 34.7503 257.216 34.7503C257.216 34.7503 266.616 31.5503 271.216 24.5503Z" fill="#D66C12"/>
<path d="M256.516 23.0504C256.516 23.0504 269.016 19.9503 271.016 18.8503C270.916 19.4503 270.216 19.9503 270.116 22.3503C270.116 26.7503 254.816 32.5504 254.416 32.0504C254.116 31.4504 250.816 27.5504 256.516 23.0504Z" fill="#D66C12"/>
<path d="M260.316 17.6503C260.316 17.6503 272.016 16.3502 273.016 15.2502C274.116 14.0502 274.816 11.6503 272.816 10.9503C270.816 10.2503 269.316 9.95025 266.416 11.3503C263.516 12.6503 260.316 17.6503 260.316 17.6503Z" fill="#D66C12"/>
<path d="M357.116 65.6502V143.75C357.116 149.45 353.516 154.55 348.016 156.45C329.616 162.85 287.116 174.05 257.016 152.95C241.216 141.85 235.616 129.25 237.116 112.55C239.316 87.6502 253.316 64.4502 253.316 64.4502" fill="#956AAB"/>
<path d="M309.716 24.3503C309.716 24.3503 354.216 31.5503 357.516 63.5503C360.816 95.4503 308.616 123.35 273.016 101.45C237.416 79.5503 249.716 21.3503 309.716 24.3503Z" fill="#956AAB"/>
<path d="M294.916 31.2502C294.916 31.2502 320.416 35.4502 322.316 53.8502C324.216 72.2502 294.316 88.3502 273.916 75.7502C253.516 63.1502 260.516 29.5502 294.916 31.2502Z" fill="white"/>
<path d="M288.916 36.0504C288.916 36.0504 304.816 38.6504 306.016 50.1504C307.216 61.6504 288.516 71.6503 275.816 63.7503C263.116 55.8503 267.516 34.9504 288.916 36.0504Z" fill="#1CA5B7"/>
<path d="M326.316 79.4504L327.716 87.2504L321.316 85.2504" fill="#FCF7CC"/>
<path d="M316.616 88.3503L314.016 96.4503L309.916 90.3503L316.616 88.3503Z" fill="#FCF7CC"/>
<path d="M304.216 90.5505L298.816 98.6505L298.016 88.7505L304.216 90.5505Z" fill="#FCF7CC"/>
<path d="M331.916 63.6504C331.916 63.6504 331.616 64.4504 331.116 65.8504C330.816 66.5504 330.516 67.3504 330.116 68.3504C329.716 69.3504 329.216 70.3504 328.716 71.5504C328.116 72.6504 327.516 73.8504 326.816 75.1504C326.116 76.3504 325.316 77.6504 324.416 78.8504C323.516 80.0504 322.516 81.2504 321.416 82.4504C320.816 82.9504 320.316 83.5504 319.616 84.0504L318.716 84.7504L317.716 85.4504C317.416 85.6504 317.016 85.8504 316.716 86.0504C316.416 86.2504 316.016 86.4504 315.716 86.6504C315.016 86.9504 314.316 87.3504 313.616 87.5504C313.216 87.6504 312.916 87.8504 312.516 87.9504C312.116 88.0504 311.816 88.1504 311.416 88.2504C310.716 88.4504 309.916 88.5504 309.216 88.6504C307.716 88.8504 306.216 88.9504 304.816 88.8504C304.116 88.8504 303.416 88.7504 302.716 88.7504C302.016 88.6504 301.416 88.6504 300.816 88.5504C299.616 88.3504 298.416 88.1504 297.416 87.9504C296.416 87.7504 295.516 87.5504 294.816 87.3504C293.416 86.9504 292.516 86.7504 292.516 86.7504C292.516 86.7504 293.216 87.2504 294.616 87.9504C295.316 88.3504 296.116 88.7504 297.116 89.1504C297.616 89.3504 298.116 89.6504 298.716 89.8504C299.316 90.0504 299.916 90.2504 300.516 90.4504C301.116 90.6504 301.816 90.8504 302.516 90.9504C303.216 91.1504 303.916 91.2504 304.716 91.3504C306.216 91.5504 307.916 91.6504 309.616 91.5504C310.516 91.4504 311.316 91.4504 312.216 91.2504C312.616 91.1504 313.116 91.0504 313.516 90.9504C313.916 90.8504 314.416 90.6504 314.816 90.5504C315.716 90.3504 316.516 89.8504 317.316 89.5504C317.716 89.3504 318.116 89.1504 318.516 88.8504C318.916 88.6504 319.316 88.4504 319.716 88.1504C321.316 87.1504 322.616 85.8504 323.816 84.6504C325.016 83.3504 326.116 81.9504 326.916 80.4504C327.816 79.0504 328.516 77.5504 329.116 76.1504C329.716 74.7504 330.216 73.4504 330.516 72.1504C331.216 69.6504 331.616 67.4504 331.816 65.9504C331.916 64.5504 331.916 63.6504 331.916 63.6504Z" fill="#6A4D94"/>
<path d="M288.616 40.2504C288.616 40.2504 300.816 42.2504 301.716 51.0504C302.616 59.8504 288.316 67.5504 278.516 61.5504C268.716 55.4504 272.116 39.3504 288.616 40.2504Z" fill="#026572"/>
<path d="M288.316 42.0503C288.316 42.0503 297.716 43.5503 298.416 50.3503C299.116 57.1503 288.116 63.0503 280.616 58.4503C273.016 53.8503 275.616 41.4503 288.316 42.0503Z" fill="black"/>
<path d="M280.916 49.3503C278.43 49.3503 276.416 47.3356 276.416 44.8503C276.416 42.3651 278.43 40.3503 280.916 40.3503C283.401 40.3503 285.416 42.3651 285.416 44.8503C285.416 47.3356 283.401 49.3503 280.916 49.3503Z" fill="white"/>
<path d="M285.216 55.9503C284.001 55.9503 283.016 54.9653 283.016 53.7503C283.016 52.5352 284.001 51.5503 285.216 51.5503C286.431 51.5503 287.416 52.5352 287.416 53.7503C287.416 54.9653 286.431 55.9503 285.216 55.9503Z" fill="white"/>
<path d="M248.916 98.1503C249.816 95.4503 253.016 94.4503 255.216 96.1503C263.016 101.95 279.316 112.95 289.516 112.25C303.416 111.35 314.216 154.15 302.716 158.45C292.916 162.05 230.016 155.95 248.916 98.1503Z" fill="#FBF4AE"/>
<path d="M249.016 98.1504C249.016 98.1504 249.116 97.3503 250.216 96.3503C250.716 95.8503 251.616 95.4503 252.616 95.3503C253.116 95.3503 253.716 95.3504 254.316 95.6504C254.916 95.8504 255.416 96.2504 255.916 96.6504C258.116 98.2504 260.816 100.25 264.016 102.35C267.216 104.45 270.916 106.75 275.216 108.75C276.316 109.25 277.416 109.75 278.516 110.25C279.716 110.65 280.816 111.15 282.116 111.45C284.516 112.15 287.316 112.65 290.016 112.45C291.316 112.45 292.616 112.85 293.716 113.55C294.916 114.25 295.916 115.15 296.916 116.15C298.816 118.15 300.316 120.65 301.716 123.25C304.316 128.55 306.116 134.45 307.016 140.55C307.416 143.65 307.616 146.75 307.216 149.85C307.016 151.35 306.716 152.95 306.116 154.35C305.516 155.75 304.616 157.05 303.216 157.75C302.916 157.95 302.516 158.05 302.116 158.15L301.516 158.35L300.916 158.45C300.216 158.65 299.416 158.65 298.616 158.75C297.016 158.85 295.516 158.85 293.916 158.85C290.816 158.75 287.716 158.35 284.716 157.75C278.616 156.65 272.816 154.75 267.616 152.15C266.316 151.45 265.016 150.75 263.816 150.05C262.616 149.35 261.416 148.45 260.316 147.65C258.116 145.95 256.016 144.15 254.316 142.05C250.816 138.05 248.416 133.45 247.116 128.95C245.816 124.45 245.516 120.05 245.616 116.25C245.616 115.25 245.716 114.35 245.716 113.45C245.716 112.55 245.916 111.75 246.016 110.85C246.116 110.05 246.216 109.25 246.316 108.45C246.416 107.75 246.616 106.95 246.716 106.35C247.016 105.05 247.216 103.75 247.516 102.75C247.816 101.75 248.016 100.85 248.216 100.15C248.716 98.9504 249.016 98.1504 249.016 98.1504ZM248.916 98.1504C248.916 98.1504 248.716 98.9503 248.316 100.35C248.116 101.05 247.816 101.95 247.516 102.95C247.216 103.95 247.016 105.15 246.716 106.55C246.616 107.25 246.416 107.95 246.216 108.65C246.116 109.45 246.016 110.15 245.816 111.05C245.716 111.85 245.516 112.75 245.516 113.65C245.416 114.55 245.416 115.45 245.316 116.45C245.216 120.25 245.316 124.65 246.516 129.35C247.716 133.95 250.116 138.75 253.716 142.85C255.416 144.95 257.616 146.85 259.816 148.55C262.116 150.25 264.616 151.85 267.316 153.15C272.616 155.75 278.516 157.65 284.716 158.75C287.816 159.25 290.916 159.55 294.016 159.65C295.616 159.65 297.216 159.65 298.716 159.55C299.516 159.45 300.316 159.35 301.116 159.25L301.716 159.15L302.316 158.95C302.716 158.85 303.116 158.65 303.416 158.55C304.916 157.75 305.816 156.35 306.416 154.85C307.016 153.35 307.316 151.75 307.516 150.25C307.816 147.15 307.616 143.95 307.216 140.85C306.316 134.75 304.616 128.75 302.116 123.45C300.816 120.75 299.316 118.25 297.416 116.05C296.416 114.95 295.416 114.05 294.116 113.25C292.916 112.55 291.516 112.05 290.016 112.05C289.316 112.05 288.716 112.05 288.016 112.05C287.716 112.05 287.416 112.05 287.016 111.95L286.016 111.85C285.416 111.75 284.716 111.65 284.116 111.45C283.816 111.35 283.516 111.35 283.216 111.25L282.316 110.95C281.116 110.65 279.916 110.15 278.816 109.75C277.716 109.25 276.616 108.85 275.516 108.35C271.216 106.35 267.516 104.25 264.216 102.25C261.016 100.25 258.216 98.3503 256.016 96.7503C255.416 96.3503 254.916 95.9503 254.316 95.7503C253.716 95.5503 253.116 95.4503 252.616 95.4503C251.516 95.5503 250.616 95.9503 250.116 96.4503C249.516 96.9503 249.216 97.4503 249.116 97.7503C248.916 97.9503 248.916 98.1504 248.916 98.1504Z" fill="#734F9B"/>
<path d="M351.616 152.45C351.616 152.45 339.116 184.85 327.416 180.95C315.716 177.15 311.016 163.65 311.016 163.65C311.016 163.65 351.116 150.35 351.616 152.45Z" fill="#956AAB"/>
<path d="M269.716 142.451C269.716 142.451 269.816 134.651 264.116 136.251C258.416 137.851 261.516 141.551 261.516 141.551C261.516 141.551 262.816 137.451 265.216 139.251C267.516 140.951 269.716 142.451 269.716 142.451Z" fill="#F9AF14"/>
<path d="M336.016 67.5502C336.016 67.5502 343.216 62.9502 335.716 61.4502C328.116 59.9502 325.516 57.9502 324.816 62.4502C324.116 66.9502 325.216 67.1502 326.716 67.0502C328.316 66.9502 328.916 58.6502 336.016 67.5502Z" fill="#6A4D94"/>
<path d="M349.916 45.0503C353.116 47.7503 365.116 62.9503 357.716 136.05C358.316 153.45 350.416 155.35 350.416 155.35C350.416 155.35 349.316 99.5503 349.816 87.2503C350.316 72.8503 337.416 37.0503 337.416 37.0503C337.416 37.0503 344.316 37.5503 348.516 43.3503C348.816 43.9503 349.316 44.5503 349.916 45.0503Z" fill="#7961A7"/>
<path d="M338.774 100.854C336.661 101.013 335.197 103.001 335.478 105.044C336.11 109.251 338.647 115.625 347.694 118.566C361.783 123.17 389.592 95.1112 384.353 70.6205C379.016 46.1039 367 48.0607 364.026 57.6164C361.18 66.6892 363.525 98.8934 338.774 100.854Z" fill="#6A4D94"/>
<path d="M364.721 58.1132C364.721 58.1132 356.835 59.7271 358.805 55.0786C360.775 50.4302 368.05 53.4149 368.05 53.4149C368.05 53.4149 359.927 48.9605 366.238 44.3365C372.454 39.6867 372.504 51.0884 372.342 52.0802C372.18 53.072 373.243 41.7618 377.373 41.4189C381.599 41.1019 383.532 51.662 375.592 55.0214" fill="#6A4D94"/>
<path d="M329.989 50.8717C327.979 50.2689 326.632 48.8368 326.981 47.6729C327.33 46.5091 329.243 46.0542 331.253 46.6569C333.263 47.2597 334.61 48.6918 334.261 49.8557C333.912 51.0195 332 51.4744 329.989 50.8717Z" fill="#6A4D94"/>
<path d="M336.123 58.311C334.113 57.7082 332.933 55.7186 333.488 53.867C334.043 52.0153 336.123 51.0029 338.133 51.6057C340.144 52.2084 341.323 54.1981 340.768 56.0497C340.213 57.9013 338.133 58.9137 336.123 58.311Z" fill="#6A4D94"/>
<path d="M329.345 57.4707C327.97 57.0583 327.15 55.7375 327.515 54.5208C327.88 53.304 329.291 52.6519 330.666 53.0643C332.042 53.4767 332.861 54.7974 332.496 56.0142C332.131 57.231 330.721 57.8831 329.345 57.4707Z" fill="#6A4D94"/>
<path d="M346.716 39.6503C347.016 39.3503 365.116 32.6503 358.716 25.1503C352.316 17.6503 348.816 8.35032 341.416 10.2503C334.016 12.1503 347.916 19.9503 341.416 24.8503C334.916 29.7503 329.016 26.4503 326.516 31.4503C324.016 36.4503 342.616 43.6503 346.716 39.6503Z" fill="#F9AF14"/>
<path d="M346.716 39.6504C346.716 39.6504 333.616 32.0504 332.216 28.1504C327.616 27.8504 325.516 31.3504 326.616 33.5504C327.716 35.7504 334.216 40.8504 341.016 40.7504C345.116 41.3504 346.716 39.6504 346.716 39.6504Z" fill="#D66C12"/>
<path d="M342.016 24.2502C342.016 24.2502 339.616 26.5502 336.516 27.2502C333.416 27.9502 350.016 38.1503 351.216 37.4503C352.416 36.7503 356.016 34.4503 356.016 34.4503C356.016 34.4503 346.616 31.2502 342.016 24.2502Z" fill="#D66C12"/>
<path d="M356.716 22.7503C356.716 22.7503 344.216 19.6503 342.216 18.5503C342.316 19.1503 343.016 19.6503 343.116 22.0503C343.116 26.4503 358.416 32.2503 358.816 31.7503C359.216 31.1503 362.416 27.1503 356.716 22.7503Z" fill="#D66C12"/>
<path d="M352.916 17.3504C352.916 17.3504 341.216 16.0504 340.216 14.9504C339.216 13.8504 338.416 11.3505 340.416 10.6505C342.416 9.95045 343.916 9.65045 346.816 11.0504C349.716 12.3504 352.916 17.3504 352.916 17.3504Z" fill="#D66C12"/>
<path d="M321.316 162.55C321.316 162.55 321.016 162.55 320.416 162.65C319.816 162.75 319.016 162.85 317.916 162.95C315.816 163.15 312.716 163.45 309.116 163.55C307.316 163.65 305.316 163.65 303.216 163.65C301.116 163.65 298.916 163.55 296.616 163.45C294.316 163.35 292.016 163.05 289.616 162.85C287.216 162.55 284.916 162.25 282.516 161.75L280.716 161.45L278.916 161.05C277.716 160.75 276.616 160.45 275.416 160.15C274.816 160.05 274.316 159.85 273.716 159.65C273.116 159.45 272.616 159.35 272.016 159.15C270.916 158.75 269.816 158.35 268.816 157.95C267.816 157.55 266.716 157.05 265.716 156.65C264.716 156.25 263.816 155.75 262.816 155.35C261.016 154.35 259.216 153.45 257.716 152.55C257.316 152.35 256.916 152.05 256.616 151.85C256.216 151.65 255.916 151.35 255.516 151.15C254.816 150.65 254.116 150.25 253.516 149.85C252.316 148.95 251.216 148.25 250.416 147.55C248.716 146.15 247.816 145.45 247.816 145.45C247.816 145.45 248.616 146.45 250.016 148.05C250.716 148.85 251.716 149.75 252.816 150.85C253.416 151.35 254.016 151.85 254.616 152.45C254.916 152.75 255.316 153.05 255.616 153.35C256.016 153.65 256.316 153.85 256.716 154.15C257.516 154.65 258.216 155.35 259.116 155.85C259.916 156.35 260.816 156.95 261.716 157.55C262.616 158.05 263.616 158.65 264.616 159.15C265.616 159.65 266.716 160.15 267.716 160.65C269.916 161.55 272.116 162.45 274.516 163.15C275.716 163.45 276.916 163.85 278.116 164.15L279.916 164.65L281.716 165.05C284.216 165.55 286.616 165.85 289.116 166.15C291.616 166.35 294.016 166.45 296.316 166.45C298.616 166.45 300.916 166.35 303.016 166.25C305.116 166.05 307.116 165.85 309.016 165.55C310.816 165.25 312.516 164.95 314.016 164.65C315.516 164.35 316.816 164.05 317.816 163.75C318.816 163.45 319.716 163.15 320.216 163.05C321.116 162.65 321.316 162.55 321.316 162.55Z" fill="#6A4D94"/>
<path d="M314.216 73.0504C314.216 73.0504 289.116 83.7503 264.116 68.8503C270.716 79.8503 299.416 88.0504 314.216 73.0504Z" fill="#6A4D94"/>
<path d="M165.363 93.1972C164.653 92.5678 164.083 89.7795 161.68 87.818C161.207 87.3984 160.647 87.0288 159.914 86.7592C157.219 85.8905 154.301 88.0369 153.362 88.8101C150.321 91.1432 148.293 95.4314 147.452 98.5733C143.622 113.14 168.112 125.558 192.653 118.664C207.63 114.405 212.415 108.294 211.687 103.633C211.113 100.039 205.732 97.7184 204.589 97.339C199.308 95.1919 195.184 96.6491 189.531 97.2572C184.721 97.7251 172.298 99.0084 165.363 93.1972Z" fill="#F6A117"/>
<path d="M204.147 98.1719C204.147 98.1719 201.965 90.1937 206.91 91.9578C211.854 93.7219 209.121 101.189 209.121 101.189C209.121 101.189 213.09 92.6621 218.202 98.7171C223.315 104.772 211.708 105.469 210.852 105.386C209.859 105.266 221.396 105.649 221.96 109.826C222.525 114.004 211.845 116.706 207.878 108.835" fill="#F6A117"/>
</svg>
